<?xml version="1.0" encoding="utf-8" standalone="no"?>
<!DOCTYPE svg PUBLIC "-//W3C//DTD SVG 1.1//EN"
  "http://www.w3.org/Graphics/SVG/1.1/DTD/svg11.dtd">
<!-- Created with matplotlib (https://matplotlib.org/) -->
<svg height="345.6pt" version="1.1" viewBox="0 0 460.8 345.6" width="460.8pt" xmlns="http://www.w3.org/2000/svg" xmlns:xlink="http://www.w3.org/1999/xlink">
 <defs>
  <style type="text/css">
*{stroke-linecap:butt;stroke-linejoin:round;}
  </style>
 </defs>
 <g id="figure_1">
  <g id="patch_1">
   <path d="M 0 345.6 
L 460.8 345.6 
L 460.8 0 
L 0 0 
z
" style="fill:#ffffff;"/>
  </g>
  <g id="axes_1">
   <g id="patch_2">
    <path d="M 57.6 307.584 
L 414.72 307.584 
L 414.72 41.472 
L 57.6 41.472 
z
" style="fill:#ffffff;"/>
   </g>
   <g id="matplotlib.axis_1">
    <g id="xtick_1">
     <g id="line2d_1">
      <defs>
       <path d="M 0 0 
L 0 3.5 
" id="m7282380d15" style="stroke:#000000;stroke-width:0.8;"/>
      </defs>
      <g>
       <use style="stroke:#000000;stroke-width:0.8;" x="70.662377" xlink:href="#m7282380d15" y="307.584"/>
      </g>
     </g>
     <g id="text_1">
      <!-- −5 -->
      <defs>
       <path d="M 10.59375 35.5 
L 73.1875 35.5 
L 73.1875 27.203125 
L 10.59375 27.203125 
z
" id="DejaVuSans-8722"/>
       <path d="M 10.796875 72.90625 
L 49.515625 72.90625 
L 49.515625 64.59375 
L 19.828125 64.59375 
L 19.828125 46.734375 
Q 21.96875 47.46875 24.109375 47.828125 
Q 26.265625 48.1875 28.421875 48.1875 
Q 40.625 48.1875 47.75 41.5 
Q 54.890625 34.8125 54.890625 23.390625 
Q 54.890625 11.625 47.5625 5.09375 
Q 40.234375 -1.421875 26.90625 -1.421875 
Q 22.3125 -1.421875 17.546875 -0.640625 
Q 12.796875 0.140625 7.71875 1.703125 
L 7.71875 11.625 
Q 12.109375 9.234375 16.796875 8.0625 
Q 21.484375 6.890625 26.703125 6.890625 
Q 35.15625 6.890625 40.078125 11.328125 
Q 45.015625 15.765625 45.015625 23.390625 
Q 45.015625 31 40.078125 35.4375 
Q 35.15625 39.890625 26.703125 39.890625 
Q 22.75 39.890625 18.8125 39.015625 
Q 14.890625 38.140625 10.796875 36.28125 
z
" id="DejaVuSans-53"/>
      </defs>
      <g transform="translate(63.291283 322.182437)scale(0.1 -0.1)">
       <use xlink:href="#DejaVuSans-8722"/>
       <use x="83.789062" xlink:href="#DejaVuSans-53"/>
      </g>
     </g>
    </g>
    <g id="xtick_2">
     <g id="line2d_2">
      <g>
       <use style="stroke:#000000;stroke-width:0.8;" x="115.057519" xlink:href="#m7282380d15" y="307.584"/>
      </g>
     </g>
     <g id="text_2">
      <!-- 0 -->
      <defs>
       <path d="M 31.78125 66.40625 
Q 24.171875 66.40625 20.328125 58.90625 
Q 16.5 51.421875 16.5 36.375 
Q 16.5 21.390625 20.328125 13.890625 
Q 24.171875 6.390625 31.78125 6.390625 
Q 39.453125 6.390625 43.28125 13.890625 
Q 47.125 21.390625 47.125 36.375 
Q 47.125 51.421875 43.28125 58.90625 
Q 39.453125 66.40625 31.78125 66.40625 
z
M 31.78125 74.21875 
Q 44.046875 74.21875 50.515625 64.515625 
Q 56.984375 54.828125 56.984375 36.375 
Q 56.984375 17.96875 50.515625 8.265625 
Q 44.046875 -1.421875 31.78125 -1.421875 
Q 19.53125 -1.421875 13.0625 8.265625 
Q 6.59375 17.96875 6.59375 36.375 
Q 6.59375 54.828125 13.0625 64.515625 
Q 19.53125 74.21875 31.78125 74.21875 
z
" id="DejaVuSans-48"/>
      </defs>
      <g transform="translate(111.876269 322.182437)scale(0.1 -0.1)">
       <use xlink:href="#DejaVuSans-48"/>
      </g>
     </g>
    </g>
    <g id="xtick_3">
     <g id="line2d_3">
      <g>
       <use style="stroke:#000000;stroke-width:0.8;" x="159.452661" xlink:href="#m7282380d15" y="307.584"/>
      </g>
     </g>
     <g id="text_3">
      <!-- 5 -->
      <g transform="translate(156.271411 322.182437)scale(0.1 -0.1)">
       <use xlink:href="#DejaVuSans-53"/>
      </g>
     </g>
    </g>
    <g id="xtick_4">
     <g id="line2d_4">
      <g>
       <use style="stroke:#000000;stroke-width:0.8;" x="203.847804" xlink:href="#m7282380d15" y="307.584"/>
      </g>
     </g>
     <g id="text_4">
      <!-- 10 -->
      <defs>
       <path d="M 12.40625 8.296875 
L 28.515625 8.296875 
L 28.515625 63.921875 
L 10.984375 60.40625 
L 10.984375 69.390625 
L 28.421875 72.90625 
L 38.28125 72.90625 
L 38.28125 8.296875 
L 54.390625 8.296875 
L 54.390625 0 
L 12.40625 0 
z
" id="DejaVuSans-49"/>
      </defs>
      <g transform="translate(197.485304 322.182437)scale(0.1 -0.1)">
       <use xlink:href="#DejaVuSans-49"/>
       <use x="63.623047" xlink:href="#DejaVuSans-48"/>
      </g>
     </g>
    </g>
    <g id="xtick_5">
     <g id="line2d_5">
      <g>
       <use style="stroke:#000000;stroke-width:0.8;" x="248.242946" xlink:href="#m7282380d15" y="307.584"/>
      </g>
     </g>
     <g id="text_5">
      <!-- 15 -->
      <g transform="translate(241.880446 322.182437)scale(0.1 -0.1)">
       <use xlink:href="#DejaVuSans-49"/>
       <use x="63.623047" xlink:href="#DejaVuSans-53"/>
      </g>
     </g>
    </g>
    <g id="xtick_6">
     <g id="line2d_6">
      <g>
       <use style="stroke:#000000;stroke-width:0.8;" x="292.638088" xlink:href="#m7282380d15" y="307.584"/>
      </g>
     </g>
     <g id="text_6">
      <!-- 20 -->
      <defs>
       <path d="M 19.1875 8.296875 
L 53.609375 8.296875 
L 53.609375 0 
L 7.328125 0 
L 7.328125 8.296875 
Q 12.9375 14.109375 22.625 23.890625 
Q 32.328125 33.6875 34.8125 36.53125 
Q 39.546875 41.84375 41.421875 45.53125 
Q 43.3125 49.21875 43.3125 52.78125 
Q 43.3125 58.59375 39.234375 62.25 
Q 35.15625 65.921875 28.609375 65.921875 
Q 23.96875 65.921875 18.8125 64.3125 
Q 13.671875 62.703125 7.8125 59.421875 
L 7.8125 69.390625 
Q 13.765625 71.78125 18.9375 73 
Q 24.125 74.21875 28.421875 74.21875 
Q 39.75 74.21875 46.484375 68.546875 
Q 53.21875 62.890625 53.21875 53.421875 
Q 53.21875 48.921875 51.53125 44.890625 
Q 49.859375 40.875 45.40625 35.40625 
Q 44.1875 33.984375 37.640625 27.21875 
Q 31.109375 20.453125 19.1875 8.296875 
z
" id="DejaVuSans-50"/>
      </defs>
      <g transform="translate(286.275588 322.182437)scale(0.1 -0.1)">
       <use xlink:href="#DejaVuSans-50"/>
       <use x="63.623047" xlink:href="#DejaVuSans-48"/>
      </g>
     </g>
    </g>
    <g id="xtick_7">
     <g id="line2d_7">
      <g>
       <use style="stroke:#000000;stroke-width:0.8;" x="337.033231" xlink:href="#m7282380d15" y="307.584"/>
      </g>
     </g>
     <g id="text_7">
      <!-- 25 -->
      <g transform="translate(330.670731 322.182437)scale(0.1 -0.1)">
       <use xlink:href="#DejaVuSans-50"/>
       <use x="63.623047" xlink:href="#DejaVuSans-53"/>
      </g>
     </g>
    </g>
    <g id="xtick_8">
     <g id="line2d_8">
      <g>
       <use style="stroke:#000000;stroke-width:0.8;" x="381.428373" xlink:href="#m7282380d15" y="307.584"/>
      </g>
     </g>
     <g id="text_8">
      <!-- 30 -->
      <defs>
       <path d="M 40.578125 39.3125 
Q 47.65625 37.796875 51.625 33 
Q 55.609375 28.21875 55.609375 21.1875 
Q 55.609375 10.40625 48.1875 4.484375 
Q 40.765625 -1.421875 27.09375 -1.421875 
Q 22.515625 -1.421875 17.65625 -0.515625 
Q 12.796875 0.390625 7.625 2.203125 
L 7.625 11.71875 
Q 11.71875 9.328125 16.59375 8.109375 
Q 21.484375 6.890625 26.8125 6.890625 
Q 36.078125 6.890625 40.9375 10.546875 
Q 45.796875 14.203125 45.796875 21.1875 
Q 45.796875 27.640625 41.28125 31.265625 
Q 36.765625 34.90625 28.71875 34.90625 
L 20.21875 34.90625 
L 20.21875 43.015625 
L 29.109375 43.015625 
Q 36.375 43.015625 40.234375 45.921875 
Q 44.09375 48.828125 44.09375 54.296875 
Q 44.09375 59.90625 40.109375 62.90625 
Q 36.140625 65.921875 28.71875 65.921875 
Q 24.65625 65.921875 20.015625 65.03125 
Q 15.375 64.15625 9.8125 62.3125 
L 9.8125 71.09375 
Q 15.4375 72.65625 20.34375 73.4375 
Q 25.25 74.21875 29.59375 74.21875 
Q 40.828125 74.21875 47.359375 69.109375 
Q 53.90625 64.015625 53.90625 55.328125 
Q 53.90625 49.265625 50.4375 45.09375 
Q 46.96875 40.921875 40.578125 39.3125 
z
" id="DejaVuSans-51"/>
      </defs>
      <g transform="translate(375.065873 322.182437)scale(0.1 -0.1)">
       <use xlink:href="#DejaVuSans-51"/>
       <use x="63.623047" xlink:href="#DejaVuSans-48"/>
      </g>
     </g>
    </g>
    <g id="text_9">
     <!-- Avg Max Temperature (°C) -->
     <defs>
      <path d="M 34.1875 63.1875 
L 20.796875 26.90625 
L 47.609375 26.90625 
z
M 28.609375 72.90625 
L 39.796875 72.90625 
L 67.578125 0 
L 57.328125 0 
L 50.6875 18.703125 
L 17.828125 18.703125 
L 11.1875 0 
L 0.78125 0 
z
" id="DejaVuSans-65"/>
      <path d="M 2.984375 54.6875 
L 12.5 54.6875 
L 29.59375 8.796875 
L 46.6875 54.6875 
L 56.203125 54.6875 
L 35.6875 0 
L 23.484375 0 
z
" id="DejaVuSans-118"/>
      <path d="M 45.40625 27.984375 
Q 45.40625 37.75 41.375 43.109375 
Q 37.359375 48.484375 30.078125 48.484375 
Q 22.859375 48.484375 18.828125 43.109375 
Q 14.796875 37.75 14.796875 27.984375 
Q 14.796875 18.265625 18.828125 12.890625 
Q 22.859375 7.515625 30.078125 7.515625 
Q 37.359375 7.515625 41.375 12.890625 
Q 45.40625 18.265625 45.40625 27.984375 
z
M 54.390625 6.78125 
Q 54.390625 -7.171875 48.1875 -13.984375 
Q 42 -20.796875 29.203125 -20.796875 
Q 24.46875 -20.796875 20.265625 -20.09375 
Q 16.0625 -19.390625 12.109375 -17.921875 
L 12.109375 -9.1875 
Q 16.0625 -11.328125 19.921875 -12.34375 
Q 23.78125 -13.375 27.78125 -13.375 
Q 36.625 -13.375 41.015625 -8.765625 
Q 45.40625 -4.15625 45.40625 5.171875 
L 45.40625 9.625 
Q 42.625 4.78125 38.28125 2.390625 
Q 33.9375 0 27.875 0 
Q 17.828125 0 11.671875 7.65625 
Q 5.515625 15.328125 5.515625 27.984375 
Q 5.515625 40.671875 11.671875 48.328125 
Q 17.828125 56 27.875 56 
Q 33.9375 56 38.28125 53.609375 
Q 42.625 51.21875 45.40625 46.390625 
L 45.40625 54.6875 
L 54.390625 54.6875 
z
" id="DejaVuSans-103"/>
      <path id="DejaVuSans-32"/>
      <path d="M 9.8125 72.90625 
L 24.515625 72.90625 
L 43.109375 23.296875 
L 61.8125 72.90625 
L 76.515625 72.90625 
L 76.515625 0 
L 66.890625 0 
L 66.890625 64.015625 
L 48.09375 14.015625 
L 38.1875 14.015625 
L 19.390625 64.015625 
L 19.390625 0 
L 9.8125 0 
z
" id="DejaVuSans-77"/>
      <path d="M 34.28125 27.484375 
Q 23.390625 27.484375 19.1875 25 
Q 14.984375 22.515625 14.984375 16.5 
Q 14.984375 11.71875 18.140625 8.90625 
Q 21.296875 6.109375 26.703125 6.109375 
Q 34.1875 6.109375 38.703125 11.40625 
Q 43.21875 16.703125 43.21875 25.484375 
L 43.21875 27.484375 
z
M 52.203125 31.203125 
L 52.203125 0 
L 43.21875 0 
L 43.21875 8.296875 
Q 40.140625 3.328125 35.546875 0.953125 
Q 30.953125 -1.421875 24.3125 -1.421875 
Q 15.921875 -1.421875 10.953125 3.296875 
Q 6 8.015625 6 15.921875 
Q 6 25.140625 12.171875 29.828125 
Q 18.359375 34.515625 30.609375 34.515625 
L 43.21875 34.515625 
L 43.21875 35.40625 
Q 43.21875 41.609375 39.140625 45 
Q 35.0625 48.390625 27.6875 48.390625 
Q 23 48.390625 18.546875 47.265625 
Q 14.109375 46.140625 10.015625 43.890625 
L 10.015625 52.203125 
Q 14.9375 54.109375 19.578125 55.046875 
Q 24.21875 56 28.609375 56 
Q 40.484375 56 46.34375 49.84375 
Q 52.203125 43.703125 52.203125 31.203125 
z
" id="DejaVuSans-97"/>
      <path d="M 54.890625 54.6875 
L 35.109375 28.078125 
L 55.90625 0 
L 45.3125 0 
L 29.390625 21.484375 
L 13.484375 0 
L 2.875 0 
L 24.125 28.609375 
L 4.6875 54.6875 
L 15.28125 54.6875 
L 29.78125 35.203125 
L 44.28125 54.6875 
z
" id="DejaVuSans-120"/>
      <path d="M -0.296875 72.90625 
L 61.375 72.90625 
L 61.375 64.59375 
L 35.5 64.59375 
L 35.5 0 
L 25.59375 0 
L 25.59375 64.59375 
L -0.296875 64.59375 
z
" id="DejaVuSans-84"/>
      <path d="M 56.203125 29.59375 
L 56.203125 25.203125 
L 14.890625 25.203125 
Q 15.484375 15.921875 20.484375 11.0625 
Q 25.484375 6.203125 34.421875 6.203125 
Q 39.59375 6.203125 44.453125 7.46875 
Q 49.3125 8.734375 54.109375 11.28125 
L 54.109375 2.78125 
Q 49.265625 0.734375 44.1875 -0.34375 
Q 39.109375 -1.421875 33.890625 -1.421875 
Q 20.796875 -1.421875 13.15625 6.1875 
Q 5.515625 13.8125 5.515625 26.8125 
Q 5.515625 40.234375 12.765625 48.109375 
Q 20.015625 56 32.328125 56 
Q 43.359375 56 49.78125 48.890625 
Q 56.203125 41.796875 56.203125 29.59375 
z
M 47.21875 32.234375 
Q 47.125 39.59375 43.09375 43.984375 
Q 39.0625 48.390625 32.421875 48.390625 
Q 24.90625 48.390625 20.390625 44.140625 
Q 15.875 39.890625 15.1875 32.171875 
z
" id="DejaVuSans-101"/>
      <path d="M 52 44.1875 
Q 55.375 50.25 60.0625 53.125 
Q 64.75 56 71.09375 56 
Q 79.640625 56 84.28125 50.015625 
Q 88.921875 44.046875 88.921875 33.015625 
L 88.921875 0 
L 79.890625 0 
L 79.890625 32.71875 
Q 79.890625 40.578125 77.09375 44.375 
Q 74.3125 48.1875 68.609375 48.1875 
Q 61.625 48.1875 57.5625 43.546875 
Q 53.515625 38.921875 53.515625 30.90625 
L 53.515625 0 
L 44.484375 0 
L 44.484375 32.71875 
Q 44.484375 40.625 41.703125 44.40625 
Q 38.921875 48.1875 33.109375 48.1875 
Q 26.21875 48.1875 22.15625 43.53125 
Q 18.109375 38.875 18.109375 30.90625 
L 18.109375 0 
L 9.078125 0 
L 9.078125 54.6875 
L 18.109375 54.6875 
L 18.109375 46.1875 
Q 21.1875 51.21875 25.484375 53.609375 
Q 29.78125 56 35.6875 56 
Q 41.65625 56 45.828125 52.96875 
Q 50 49.953125 52 44.1875 
z
" id="DejaVuSans-109"/>
      <path d="M 18.109375 8.203125 
L 18.109375 -20.796875 
L 9.078125 -20.796875 
L 9.078125 54.6875 
L 18.109375 54.6875 
L 18.109375 46.390625 
Q 20.953125 51.265625 25.265625 53.625 
Q 29.59375 56 35.59375 56 
Q 45.5625 56 51.78125 48.09375 
Q 58.015625 40.1875 58.015625 27.296875 
Q 58.015625 14.40625 51.78125 6.484375 
Q 45.5625 -1.421875 35.59375 -1.421875 
Q 29.59375 -1.421875 25.265625 0.953125 
Q 20.953125 3.328125 18.109375 8.203125 
z
M 48.6875 27.296875 
Q 48.6875 37.203125 44.609375 42.84375 
Q 40.53125 48.484375 33.40625 48.484375 
Q 26.265625 48.484375 22.1875 42.84375 
Q 18.109375 37.203125 18.109375 27.296875 
Q 18.109375 17.390625 22.1875 11.75 
Q 26.265625 6.109375 33.40625 6.109375 
Q 40.53125 6.109375 44.609375 11.75 
Q 48.6875 17.390625 48.6875 27.296875 
z
" id="DejaVuSans-112"/>
      <path d="M 41.109375 46.296875 
Q 39.59375 47.171875 37.8125 47.578125 
Q 36.03125 48 33.890625 48 
Q 26.265625 48 22.1875 43.046875 
Q 18.109375 38.09375 18.109375 28.8125 
L 18.109375 0 
L 9.078125 0 
L 9.078125 54.6875 
L 18.109375 54.6875 
L 18.109375 46.1875 
Q 20.953125 51.171875 25.484375 53.578125 
Q 30.03125 56 36.53125 56 
Q 37.453125 56 38.578125 55.875 
Q 39.703125 55.765625 41.0625 55.515625 
z
" id="DejaVuSans-114"/>
      <path d="M 18.3125 70.21875 
L 18.3125 54.6875 
L 36.8125 54.6875 
L 36.8125 47.703125 
L 18.3125 47.703125 
L 18.3125 18.015625 
Q 18.3125 11.328125 20.140625 9.421875 
Q 21.96875 7.515625 27.59375 7.515625 
L 36.8125 7.515625 
L 36.8125 0 
L 27.59375 0 
Q 17.1875 0 13.234375 3.875 
Q 9.28125 7.765625 9.28125 18.015625 
L 9.28125 47.703125 
L 2.6875 47.703125 
L 2.6875 54.6875 
L 9.28125 54.6875 
L 9.28125 70.21875 
z
" id="DejaVuSans-116"/>
      <path d="M 8.5 21.578125 
L 8.5 54.6875 
L 17.484375 54.6875 
L 17.484375 21.921875 
Q 17.484375 14.15625 20.5 10.265625 
Q 23.53125 6.390625 29.59375 6.390625 
Q 36.859375 6.390625 41.078125 11.03125 
Q 45.3125 15.671875 45.3125 23.6875 
L 45.3125 54.6875 
L 54.296875 54.6875 
L 54.296875 0 
L 45.3125 0 
L 45.3125 8.40625 
Q 42.046875 3.421875 37.71875 1 
Q 33.40625 -1.421875 27.6875 -1.421875 
Q 18.265625 -1.421875 13.375 4.4375 
Q 8.5 10.296875 8.5 21.578125 
z
M 31.109375 56 
z
" id="DejaVuSans-117"/>
      <path d="M 31 75.875 
Q 24.46875 64.65625 21.28125 53.65625 
Q 18.109375 42.671875 18.109375 31.390625 
Q 18.109375 20.125 21.3125 9.0625 
Q 24.515625 -2 31 -13.1875 
L 23.1875 -13.1875 
Q 15.875 -1.703125 12.234375 9.375 
Q 8.59375 20.453125 8.59375 31.390625 
Q 8.59375 42.28125 12.203125 53.3125 
Q 15.828125 64.359375 23.1875 75.875 
z
" id="DejaVuSans-40"/>
      <path d="M 25 67.921875 
Q 21.09375 67.921875 18.40625 65.203125 
Q 15.71875 62.5 15.71875 58.59375 
Q 15.71875 54.734375 18.40625 52.078125 
Q 21.09375 49.421875 25 49.421875 
Q 28.90625 49.421875 31.59375 52.078125 
Q 34.28125 54.734375 34.28125 58.59375 
Q 34.28125 62.453125 31.5625 65.1875 
Q 28.859375 67.921875 25 67.921875 
z
M 25 74.21875 
Q 28.125 74.21875 31 73.015625 
Q 33.890625 71.828125 35.984375 69.578125 
Q 38.234375 67.390625 39.359375 64.59375 
Q 40.484375 61.8125 40.484375 58.59375 
Q 40.484375 52.15625 35.96875 47.6875 
Q 31.453125 43.21875 24.90625 43.21875 
Q 18.3125 43.21875 13.90625 47.609375 
Q 9.515625 52 9.515625 58.59375 
Q 9.515625 65.140625 14 69.671875 
Q 18.5 74.21875 25 74.21875 
z
" id="DejaVuSans-176"/>
      <path d="M 64.40625 67.28125 
L 64.40625 56.890625 
Q 59.421875 61.53125 53.78125 63.8125 
Q 48.140625 66.109375 41.796875 66.109375 
Q 29.296875 66.109375 22.65625 58.46875 
Q 16.015625 50.828125 16.015625 36.375 
Q 16.015625 21.96875 22.65625 14.328125 
Q 29.296875 6.6875 41.796875 6.6875 
Q 48.140625 6.6875 53.78125 8.984375 
Q 59.421875 11.28125 64.40625 15.921875 
L 64.40625 5.609375 
Q 59.234375 2.09375 53.4375 0.328125 
Q 47.65625 -1.421875 41.21875 -1.421875 
Q 24.65625 -1.421875 15.125 8.703125 
Q 5.609375 18.84375 5.609375 36.375 
Q 5.609375 53.953125 15.125 64.078125 
Q 24.65625 74.21875 41.21875 74.21875 
Q 47.75 74.21875 53.53125 72.484375 
Q 59.328125 70.75 64.40625 67.28125 
z
" id="DejaVuSans-67"/>
      <path d="M 8.015625 75.875 
L 15.828125 75.875 
Q 23.140625 64.359375 26.78125 53.3125 
Q 30.421875 42.28125 30.421875 31.390625 
Q 30.421875 20.453125 26.78125 9.375 
Q 23.140625 -1.703125 15.828125 -13.1875 
L 8.015625 -13.1875 
Q 14.5 -2 17.703125 9.0625 
Q 20.90625 20.125 20.90625 31.390625 
Q 20.90625 42.671875 17.703125 53.65625 
Q 14.5 64.65625 8.015625 75.875 
z
" id="DejaVuSans-41"/>
     </defs>
     <g transform="translate(170.232656 335.860562)scale(0.1 -0.1)">
      <use xlink:href="#DejaVuSans-65"/>
      <use x="62.533203" xlink:href="#DejaVuSans-118"/>
      <use x="121.712891" xlink:href="#DejaVuSans-103"/>
      <use x="185.189453" xlink:href="#DejaVuSans-32"/>
      <use x="216.976562" xlink:href="#DejaVuSans-77"/>
      <use x="303.255859" xlink:href="#DejaVuSans-97"/>
      <use x="364.535156" xlink:href="#DejaVuSans-120"/>
      <use x="423.714844" xlink:href="#DejaVuSans-32"/>
      <use x="455.501953" xlink:href="#DejaVuSans-84"/>
      <use x="499.585938" xlink:href="#DejaVuSans-101"/>
      <use x="561.109375" xlink:href="#DejaVuSans-109"/>
      <use x="658.521484" xlink:href="#DejaVuSans-112"/>
      <use x="721.998047" xlink:href="#DejaVuSans-101"/>
      <use x="783.521484" xlink:href="#DejaVuSans-114"/>
      <use x="824.634766" xlink:href="#DejaVuSans-97"/>
      <use x="885.914062" xlink:href="#DejaVuSans-116"/>
      <use x="925.123047" xlink:href="#DejaVuSans-117"/>
      <use x="988.501953" xlink:href="#DejaVuSans-114"/>
      <use x="1027.365234" xlink:href="#DejaVuSans-101"/>
      <use x="1088.888672" xlink:href="#DejaVuSans-32"/>
      <use x="1120.675781" xlink:href="#DejaVuSans-40"/>
      <use x="1159.689453" xlink:href="#DejaVuSans-176"/>
      <use x="1209.689453" xlink:href="#DejaVuSans-67"/>
      <use x="1279.513672" xlink:href="#DejaVuSans-41"/>
     </g>
    </g>
   </g>
   <g id="matplotlib.axis_2">
    <g id="ytick_1">
     <g id="line2d_9">
      <defs>
       <path d="M 0 0 
L -3.5 0 
" id="m206b8512ca" style="stroke:#000000;stroke-width:0.8;"/>
      </defs>
      <g>
       <use style="stroke:#000000;stroke-width:0.8;" x="57.6" xlink:href="#m206b8512ca" y="295.494615"/>
      </g>
     </g>
     <g id="text_10">
      <!-- 0 -->
      <g transform="translate(44.2375 299.293833)scale(0.1 -0.1)">
       <use xlink:href="#DejaVuSans-48"/>
      </g>
     </g>
    </g>
    <g id="ytick_2">
     <g id="line2d_10">
      <g>
       <use style="stroke:#000000;stroke-width:0.8;" x="57.6" xlink:href="#m206b8512ca" y="261.155395"/>
      </g>
     </g>
     <g id="text_11">
      <!-- 1000 -->
      <g transform="translate(25.15 264.954614)scale(0.1 -0.1)">
       <use xlink:href="#DejaVuSans-49"/>
       <use x="63.623047" xlink:href="#DejaVuSans-48"/>
       <use x="127.246094" xlink:href="#DejaVuSans-48"/>
       <use x="190.869141" xlink:href="#DejaVuSans-48"/>
      </g>
     </g>
    </g>
    <g id="ytick_3">
     <g id="line2d_11">
      <g>
       <use style="stroke:#000000;stroke-width:0.8;" x="57.6" xlink:href="#m206b8512ca" y="226.816175"/>
      </g>
     </g>
     <g id="text_12">
      <!-- 2000 -->
      <g transform="translate(25.15 230.615394)scale(0.1 -0.1)">
       <use xlink:href="#DejaVuSans-50"/>
       <use x="63.623047" xlink:href="#DejaVuSans-48"/>
       <use x="127.246094" xlink:href="#DejaVuSans-48"/>
       <use x="190.869141" xlink:href="#DejaVuSans-48"/>
      </g>
     </g>
    </g>
    <g id="ytick_4">
     <g id="line2d_12">
      <g>
       <use style="stroke:#000000;stroke-width:0.8;" x="57.6" xlink:href="#m206b8512ca" y="192.476955"/>
      </g>
     </g>
     <g id="text_13">
      <!-- 3000 -->
      <g transform="translate(25.15 196.276174)scale(0.1 -0.1)">
       <use xlink:href="#DejaVuSans-51"/>
       <use x="63.623047" xlink:href="#DejaVuSans-48"/>
       <use x="127.246094" xlink:href="#DejaVuSans-48"/>
       <use x="190.869141" xlink:href="#DejaVuSans-48"/>
      </g>
     </g>
    </g>
    <g id="ytick_5">
     <g id="line2d_13">
      <g>
       <use style="stroke:#000000;stroke-width:0.8;" x="57.6" xlink:href="#m206b8512ca" y="158.137735"/>
      </g>
     </g>
     <g id="text_14">
      <!-- 4000 -->
      <defs>
       <path d="M 37.796875 64.3125 
L 12.890625 25.390625 
L 37.796875 25.390625 
z
M 35.203125 72.90625 
L 47.609375 72.90625 
L 47.609375 25.390625 
L 58.015625 25.390625 
L 58.015625 17.1875 
L 47.609375 17.1875 
L 47.609375 0 
L 37.796875 0 
L 37.796875 17.1875 
L 4.890625 17.1875 
L 4.890625 26.703125 
z
" id="DejaVuSans-52"/>
      </defs>
      <g transform="translate(25.15 161.936954)scale(0.1 -0.1)">
       <use xlink:href="#DejaVuSans-52"/>
       <use x="63.623047" xlink:href="#DejaVuSans-48"/>
       <use x="127.246094" xlink:href="#DejaVuSans-48"/>
       <use x="190.869141" xlink:href="#DejaVuSans-48"/>
      </g>
     </g>
    </g>
    <g id="ytick_6">
     <g id="line2d_14">
      <g>
       <use style="stroke:#000000;stroke-width:0.8;" x="57.6" xlink:href="#m206b8512ca" y="123.798516"/>
      </g>
     </g>
     <g id="text_15">
      <!-- 5000 -->
      <g transform="translate(25.15 127.597734)scale(0.1 -0.1)">
       <use xlink:href="#DejaVuSans-53"/>
       <use x="63.623047" xlink:href="#DejaVuSans-48"/>
       <use x="127.246094" xlink:href="#DejaVuSans-48"/>
       <use x="190.869141" xlink:href="#DejaVuSans-48"/>
      </g>
     </g>
    </g>
    <g id="ytick_7">
     <g id="line2d_15">
      <g>
       <use style="stroke:#000000;stroke-width:0.8;" x="57.6" xlink:href="#m206b8512ca" y="89.459296"/>
      </g>
     </g>
     <g id="text_16">
      <!-- 6000 -->
      <defs>
       <path d="M 33.015625 40.375 
Q 26.375 40.375 22.484375 35.828125 
Q 18.609375 31.296875 18.609375 23.390625 
Q 18.609375 15.53125 22.484375 10.953125 
Q 26.375 6.390625 33.015625 6.390625 
Q 39.65625 6.390625 43.53125 10.953125 
Q 47.40625 15.53125 47.40625 23.390625 
Q 47.40625 31.296875 43.53125 35.828125 
Q 39.65625 40.375 33.015625 40.375 
z
M 52.59375 71.296875 
L 52.59375 62.3125 
Q 48.875 64.0625 45.09375 64.984375 
Q 41.3125 65.921875 37.59375 65.921875 
Q 27.828125 65.921875 22.671875 59.328125 
Q 17.53125 52.734375 16.796875 39.40625 
Q 19.671875 43.65625 24.015625 45.921875 
Q 28.375 48.1875 33.59375 48.1875 
Q 44.578125 48.1875 50.953125 41.515625 
Q 57.328125 34.859375 57.328125 23.390625 
Q 57.328125 12.15625 50.6875 5.359375 
Q 44.046875 -1.421875 33.015625 -1.421875 
Q 20.359375 -1.421875 13.671875 8.265625 
Q 6.984375 17.96875 6.984375 36.375 
Q 6.984375 53.65625 15.1875 63.9375 
Q 23.390625 74.21875 37.203125 74.21875 
Q 40.921875 74.21875 44.703125 73.484375 
Q 48.484375 72.75 52.59375 71.296875 
z
" id="DejaVuSans-54"/>
      </defs>
      <g transform="translate(25.15 93.258515)scale(0.1 -0.1)">
       <use xlink:href="#DejaVuSans-54"/>
       <use x="63.623047" xlink:href="#DejaVuSans-48"/>
       <use x="127.246094" xlink:href="#DejaVuSans-48"/>
       <use x="190.869141" xlink:href="#DejaVuSans-48"/>
      </g>
     </g>
    </g>
    <g id="ytick_8">
     <g id="line2d_16">
      <g>
       <use style="stroke:#000000;stroke-width:0.8;" x="57.6" xlink:href="#m206b8512ca" y="55.120076"/>
      </g>
     </g>
     <g id="text_17">
      <!-- 7000 -->
      <defs>
       <path d="M 8.203125 72.90625 
L 55.078125 72.90625 
L 55.078125 68.703125 
L 28.609375 0 
L 18.3125 0 
L 43.21875 64.59375 
L 8.203125 64.59375 
z
" id="DejaVuSans-55"/>
      </defs>
      <g transform="translate(25.15 58.919295)scale(0.1 -0.1)">
       <use xlink:href="#DejaVuSans-55"/>
       <use x="63.623047" xlink:href="#DejaVuSans-48"/>
       <use x="127.246094" xlink:href="#DejaVuSans-48"/>
       <use x="190.869141" xlink:href="#DejaVuSans-48"/>
      </g>
     </g>
    </g>
    <g id="text_18">
     <!-- Population Density (people/km²) -->
     <defs>
      <path d="M 19.671875 64.796875 
L 19.671875 37.40625 
L 32.078125 37.40625 
Q 38.96875 37.40625 42.71875 40.96875 
Q 46.484375 44.53125 46.484375 51.125 
Q 46.484375 57.671875 42.71875 61.234375 
Q 38.96875 64.796875 32.078125 64.796875 
z
M 9.8125 72.90625 
L 32.078125 72.90625 
Q 44.34375 72.90625 50.609375 67.359375 
Q 56.890625 61.8125 56.890625 51.125 
Q 56.890625 40.328125 50.609375 34.8125 
Q 44.34375 29.296875 32.078125 29.296875 
L 19.671875 29.296875 
L 19.671875 0 
L 9.8125 0 
z
" id="DejaVuSans-80"/>
      <path d="M 30.609375 48.390625 
Q 23.390625 48.390625 19.1875 42.75 
Q 14.984375 37.109375 14.984375 27.296875 
Q 14.984375 17.484375 19.15625 11.84375 
Q 23.34375 6.203125 30.609375 6.203125 
Q 37.796875 6.203125 41.984375 11.859375 
Q 46.1875 17.53125 46.1875 27.296875 
Q 46.1875 37.015625 41.984375 42.703125 
Q 37.796875 48.390625 30.609375 48.390625 
z
M 30.609375 56 
Q 42.328125 56 49.015625 48.375 
Q 55.71875 40.765625 55.71875 27.296875 
Q 55.71875 13.875 49.015625 6.21875 
Q 42.328125 -1.421875 30.609375 -1.421875 
Q 18.84375 -1.421875 12.171875 6.21875 
Q 5.515625 13.875 5.515625 27.296875 
Q 5.515625 40.765625 12.171875 48.375 
Q 18.84375 56 30.609375 56 
z
" id="DejaVuSans-111"/>
      <path d="M 9.421875 75.984375 
L 18.40625 75.984375 
L 18.40625 0 
L 9.421875 0 
z
" id="DejaVuSans-108"/>
      <path d="M 9.421875 54.6875 
L 18.40625 54.6875 
L 18.40625 0 
L 9.421875 0 
z
M 9.421875 75.984375 
L 18.40625 75.984375 
L 18.40625 64.59375 
L 9.421875 64.59375 
z
" id="DejaVuSans-105"/>
      <path d="M 54.890625 33.015625 
L 54.890625 0 
L 45.90625 0 
L 45.90625 32.71875 
Q 45.90625 40.484375 42.875 44.328125 
Q 39.84375 48.1875 33.796875 48.1875 
Q 26.515625 48.1875 22.3125 43.546875 
Q 18.109375 38.921875 18.109375 30.90625 
L 18.109375 0 
L 9.078125 0 
L 9.078125 54.6875 
L 18.109375 54.6875 
L 18.109375 46.1875 
Q 21.34375 51.125 25.703125 53.5625 
Q 30.078125 56 35.796875 56 
Q 45.21875 56 50.046875 50.171875 
Q 54.890625 44.34375 54.890625 33.015625 
z
" id="DejaVuSans-110"/>
      <path d="M 19.671875 64.796875 
L 19.671875 8.109375 
L 31.59375 8.109375 
Q 46.6875 8.109375 53.6875 14.9375 
Q 60.6875 21.78125 60.6875 36.53125 
Q 60.6875 51.171875 53.6875 57.984375 
Q 46.6875 64.796875 31.59375 64.796875 
z
M 9.8125 72.90625 
L 30.078125 72.90625 
Q 51.265625 72.90625 61.171875 64.09375 
Q 71.09375 55.28125 71.09375 36.53125 
Q 71.09375 17.671875 61.125 8.828125 
Q 51.171875 0 30.078125 0 
L 9.8125 0 
z
" id="DejaVuSans-68"/>
      <path d="M 44.28125 53.078125 
L 44.28125 44.578125 
Q 40.484375 46.53125 36.375 47.5 
Q 32.28125 48.484375 27.875 48.484375 
Q 21.1875 48.484375 17.84375 46.4375 
Q 14.5 44.390625 14.5 40.28125 
Q 14.5 37.15625 16.890625 35.375 
Q 19.28125 33.59375 26.515625 31.984375 
L 29.59375 31.296875 
Q 39.15625 29.25 43.1875 25.515625 
Q 47.21875 21.78125 47.21875 15.09375 
Q 47.21875 7.46875 41.1875 3.015625 
Q 35.15625 -1.421875 24.609375 -1.421875 
Q 20.21875 -1.421875 15.453125 -0.5625 
Q 10.6875 0.296875 5.421875 2 
L 5.421875 11.28125 
Q 10.40625 8.6875 15.234375 7.390625 
Q 20.0625 6.109375 24.8125 6.109375 
Q 31.15625 6.109375 34.5625 8.28125 
Q 37.984375 10.453125 37.984375 14.40625 
Q 37.984375 18.0625 35.515625 20.015625 
Q 33.0625 21.96875 24.703125 23.78125 
L 21.578125 24.515625 
Q 13.234375 26.265625 9.515625 29.90625 
Q 5.8125 33.546875 5.8125 39.890625 
Q 5.8125 47.609375 11.28125 51.796875 
Q 16.75 56 26.8125 56 
Q 31.78125 56 36.171875 55.265625 
Q 40.578125 54.546875 44.28125 53.078125 
z
" id="DejaVuSans-115"/>
      <path d="M 32.171875 -5.078125 
Q 28.375 -14.84375 24.75 -17.8125 
Q 21.140625 -20.796875 15.09375 -20.796875 
L 7.90625 -20.796875 
L 7.90625 -13.28125 
L 13.1875 -13.28125 
Q 16.890625 -13.28125 18.9375 -11.515625 
Q 21 -9.765625 23.484375 -3.21875 
L 25.09375 0.875 
L 2.984375 54.6875 
L 12.5 54.6875 
L 29.59375 11.921875 
L 46.6875 54.6875 
L 56.203125 54.6875 
z
" id="DejaVuSans-121"/>
      <path d="M 25.390625 72.90625 
L 33.6875 72.90625 
L 8.296875 -9.28125 
L 0 -9.28125 
z
" id="DejaVuSans-47"/>
      <path d="M 9.078125 75.984375 
L 18.109375 75.984375 
L 18.109375 31.109375 
L 44.921875 54.6875 
L 56.390625 54.6875 
L 27.390625 29.109375 
L 57.625 0 
L 45.90625 0 
L 18.109375 26.703125 
L 18.109375 0 
L 9.078125 0 
z
" id="DejaVuSans-107"/>
      <path d="M 13.09375 38.1875 
L 33.796875 38.1875 
L 33.796875 32.625 
L 4.59375 32.625 
L 4.59375 37.984375 
Q 6.25 39.5 9.328125 42.234375 
Q 26.125 57.125 26.125 61.71875 
Q 26.125 64.9375 23.578125 66.90625 
Q 21.046875 68.890625 16.890625 68.890625 
Q 14.359375 68.890625 11.375 68.03125 
Q 8.40625 67.1875 4.890625 65.484375 
L 4.890625 71.484375 
Q 8.640625 72.859375 11.890625 73.53125 
Q 15.140625 74.21875 17.921875 74.21875 
Q 25 74.21875 29.25 71 
Q 33.5 67.78125 33.5 62.5 
Q 33.5 55.71875 17.328125 41.84375 
Q 14.59375 39.5 13.09375 38.1875 
z
" id="DejaVuSans-178"/>
     </defs>
     <g transform="translate(19.070312 255.287375)rotate(-90)scale(0.1 -0.1)">
      <use xlink:href="#DejaVuSans-80"/>
      <use x="56.677734" xlink:href="#DejaVuSans-111"/>
      <use x="117.859375" xlink:href="#DejaVuSans-112"/>
      <use x="181.335938" xlink:href="#DejaVuSans-117"/>
      <use x="244.714844" xlink:href="#DejaVuSans-108"/>
      <use x="272.498047" xlink:href="#DejaVuSans-97"/>
      <use x="333.777344" xlink:href="#DejaVuSans-116"/>
      <use x="372.986328" xlink:href="#DejaVuSans-105"/>
      <use x="400.769531" xlink:href="#DejaVuSans-111"/>
      <use x="461.951172" xlink:href="#DejaVuSans-110"/>
      <use x="525.330078" xlink:href="#DejaVuSans-32"/>
      <use x="557.117188" xlink:href="#DejaVuSans-68"/>
      <use x="634.119141" xlink:href="#DejaVuSans-101"/>
      <use x="695.642578" xlink:href="#DejaVuSans-110"/>
      <use x="759.021484" xlink:href="#DejaVuSans-115"/>
      <use x="811.121094" xlink:href="#DejaVuSans-105"/>
      <use x="838.904297" xlink:href="#DejaVuSans-116"/>
      <use x="878.113281" xlink:href="#DejaVuSans-121"/>
      <use x="937.292969" xlink:href="#DejaVuSans-32"/>
      <use x="969.080078" xlink:href="#DejaVuSans-40"/>
      <use x="1008.09375" xlink:href="#DejaVuSans-112"/>
      <use x="1071.570312" xlink:href="#DejaVuSans-101"/>
      <use x="1133.09375" xlink:href="#DejaVuSans-111"/>
      <use x="1194.275391" xlink:href="#DejaVuSans-112"/>
      <use x="1257.751953" xlink:href="#DejaVuSans-108"/>
      <use x="1285.535156" xlink:href="#DejaVuSans-101"/>
      <use x="1347.058594" xlink:href="#DejaVuSans-47"/>
      <use x="1380.75" xlink:href="#DejaVuSans-107"/>
      <use x="1438.660156" xlink:href="#DejaVuSans-109"/>
      <use x="1536.072266" xlink:href="#DejaVuSans-178"/>
      <use x="1576.160156" xlink:href="#DejaVuSans-41"/>
     </g>
    </g>
   </g>
   <g id="line2d_17">
    <defs>
     <path d="M 0 1.5 
C 0.397805 1.5 0.77937 1.341951 1.06066 1.06066 
C 1.341951 0.77937 1.5 0.397805 1.5 0 
C 1.5 -0.397805 1.341951 -0.77937 1.06066 -1.06066 
C 0.77937 -1.341951 0.397805 -1.5 0 -1.5 
C -0.397805 -1.5 -0.77937 -1.341951 -1.06066 -1.06066 
C -1.341951 -0.77937 -1.5 -0.397805 -1.5 0 
C -1.5 0.397805 -1.341951 0.77937 -1.06066 1.06066 
C -0.77937 1.341951 -0.397805 1.5 0 1.5 
z
" id="m0c83800aa4" style="stroke:#0000ff;"/>
    </defs>
    <g clip-path="url(#p8fab8b9f86)">
     <use style="fill:#0000ff;stroke:#0000ff;" x="222.958392" xlink:href="#m0c83800aa4" y="249.856852"/>
     <use style="fill:#0000ff;stroke:#0000ff;" x="213.599978" xlink:href="#m0c83800aa4" y="254.741296"/>
     <use style="fill:#0000ff;stroke:#0000ff;" x="255.193333" xlink:href="#m0c83800aa4" y="283.28803"/>
     <use style="fill:#0000ff;stroke:#0000ff;" x="238.268837" xlink:href="#m0c83800aa4" y="210.899846"/>
     <use style="fill:#0000ff;stroke:#0000ff;" x="238.163065" xlink:href="#m0c83800aa4" y="263.868193"/>
     <use style="fill:#0000ff;stroke:#0000ff;" x="234.782143" xlink:href="#m0c83800aa4" y="289.365922"/>
     <use style="fill:#0000ff;stroke:#0000ff;" x="258.685894" xlink:href="#m0c83800aa4" y="242.815908"/>
     <use style="fill:#0000ff;stroke:#0000ff;" x="234.388202" xlink:href="#m0c83800aa4" y="244.676455"/>
     <use style="fill:#0000ff;stroke:#0000ff;" x="249.60895" xlink:href="#m0c83800aa4" y="115.287764"/>
     <use style="fill:#0000ff;stroke:#0000ff;" x="249.389635" xlink:href="#m0c83800aa4" y="154.342255"/>
     <use style="fill:#0000ff;stroke:#0000ff;" x="221.057157" xlink:href="#m0c83800aa4" y="280.720446"/>
     <use style="fill:#0000ff;stroke:#0000ff;" x="201.356339" xlink:href="#m0c83800aa4" y="287.321132"/>
     <use style="fill:#0000ff;stroke:#0000ff;" x="73.832727" xlink:href="#m0c83800aa4" y="291.070799"/>
     <use style="fill:#0000ff;stroke:#0000ff;" x="248.662061" xlink:href="#m0c83800aa4" y="232.411965"/>
     <use style="fill:#0000ff;stroke:#0000ff;" x="240.961151" xlink:href="#m0c83800aa4" y="262.98296"/>
     <use style="fill:#0000ff;stroke:#0000ff;" x="207.648908" xlink:href="#m0c83800aa4" y="293.761528"/>
     <use style="fill:#0000ff;stroke:#0000ff;" x="250.200822" xlink:href="#m0c83800aa4" y="279.806638"/>
     <use style="fill:#0000ff;stroke:#0000ff;" x="239.498079" xlink:href="#m0c83800aa4" y="240.519503"/>
     <use style="fill:#0000ff;stroke:#0000ff;" x="248.958605" xlink:href="#m0c83800aa4" y="246.757896"/>
     <use style="fill:#0000ff;stroke:#0000ff;" x="258.432937" xlink:href="#m0c83800aa4" y="211.708445"/>
     <use style="fill:#0000ff;stroke:#0000ff;" x="228.007591" xlink:href="#m0c83800aa4" y="284.57804"/>
     <use style="fill:#0000ff;stroke:#0000ff;" x="240.836478" xlink:href="#m0c83800aa4" y="292.499595"/>
     <use style="fill:#0000ff;stroke:#0000ff;" x="221.305041" xlink:href="#m0c83800aa4" y="291.885827"/>
     <use style="fill:#0000ff;stroke:#0000ff;" x="208.742337" xlink:href="#m0c83800aa4" y="287.179612"/>
     <use style="fill:#0000ff;stroke:#0000ff;" x="248.442475" xlink:href="#m0c83800aa4" y="146.605699"/>
     <use style="fill:#0000ff;stroke:#0000ff;" x="214.565419" xlink:href="#m0c83800aa4" y="294.463393"/>
     <use style="fill:#0000ff;stroke:#0000ff;" x="211.774264" xlink:href="#m0c83800aa4" y="295.475108"/>
     <use style="fill:#0000ff;stroke:#0000ff;" x="261.672016" xlink:href="#m0c83800aa4" y="271.520116"/>
     <use style="fill:#0000ff;stroke:#0000ff;" x="271.391842" xlink:href="#m0c83800aa4" y="193.970711"/>
     <use style="fill:#0000ff;stroke:#0000ff;" x="187.14244" xlink:href="#m0c83800aa4" y="295.30868"/>
     <use style="fill:#0000ff;stroke:#0000ff;" x="251.899016" xlink:href="#m0c83800aa4" y="267.757662"/>
     <use style="fill:#0000ff;stroke:#0000ff;" x="263.795946" xlink:href="#m0c83800aa4" y="263.521679"/>
     <use style="fill:#0000ff;stroke:#0000ff;" x="252.388276" xlink:href="#m0c83800aa4" y="293.805032"/>
     <use style="fill:#0000ff;stroke:#0000ff;" x="251.72919" xlink:href="#m0c83800aa4" y="287.728457"/>
     <use style="fill:#0000ff;stroke:#0000ff;" x="222.059623" xlink:href="#m0c83800aa4" y="287.635488"/>
     <use style="fill:#0000ff;stroke:#0000ff;" x="222.059623" xlink:href="#m0c83800aa4" y="288.597986"/>
     <use style="fill:#0000ff;stroke:#0000ff;" x="252.388276" xlink:href="#m0c83800aa4" y="295.026955"/>
     <use style="fill:#0000ff;stroke:#0000ff;" x="189.757279" xlink:href="#m0c83800aa4" y="294.711077"/>
     <use style="fill:#0000ff;stroke:#0000ff;" x="271.391842" xlink:href="#m0c83800aa4" y="280.509878"/>
     <use style="fill:#0000ff;stroke:#0000ff;" x="228.691819" xlink:href="#m0c83800aa4" y="177.948707"/>
     <use style="fill:#0000ff;stroke:#0000ff;" x="263.795946" xlink:href="#m0c83800aa4" y="277.804193"/>
     <use style="fill:#0000ff;stroke:#0000ff;" x="208.586583" xlink:href="#m0c83800aa4" y="257.764601"/>
     <use style="fill:#0000ff;stroke:#0000ff;" x="271.391842" xlink:href="#m0c83800aa4" y="248.047383"/>
     <use style="fill:#0000ff;stroke:#0000ff;" x="232.084714" xlink:href="#m0c83800aa4" y="292.304083"/>
     <use style="fill:#0000ff;stroke:#0000ff;" x="187.14244" xlink:href="#m0c83800aa4" y="295.252691"/>
     <use style="fill:#0000ff;stroke:#0000ff;" x="194.038353" xlink:href="#m0c83800aa4" y="291.082841"/>
     <use style="fill:#0000ff;stroke:#0000ff;" x="242.027626" xlink:href="#m0c83800aa4" y="250.166844"/>
     <use style="fill:#0000ff;stroke:#0000ff;" x="189.757279" xlink:href="#m0c83800aa4" y="295.488"/>
     <use style="fill:#0000ff;stroke:#0000ff;" x="178.551181" xlink:href="#m0c83800aa4" y="295.082448"/>
     <use style="fill:#0000ff;stroke:#0000ff;" x="271.391842" xlink:href="#m0c83800aa4" y="270.615404"/>
     <use style="fill:#0000ff;stroke:#0000ff;" x="189.757279" xlink:href="#m0c83800aa4" y="295.17953"/>
     <use style="fill:#0000ff;stroke:#0000ff;" x="205.242031" xlink:href="#m0c83800aa4" y="251.334378"/>
     <use style="fill:#0000ff;stroke:#0000ff;" x="215.640034" xlink:href="#m0c83800aa4" y="249.939346"/>
     <use style="fill:#0000ff;stroke:#0000ff;" x="205.242031" xlink:href="#m0c83800aa4" y="250.823673"/>
     <use style="fill:#0000ff;stroke:#0000ff;" x="178.820367" xlink:href="#m0c83800aa4" y="293.57576"/>
     <use style="fill:#0000ff;stroke:#0000ff;" x="276.020234" xlink:href="#m0c83800aa4" y="53.637719"/>
     <use style="fill:#0000ff;stroke:#0000ff;" x="333.889181" xlink:href="#m0c83800aa4" y="287.080957"/>
     <use style="fill:#0000ff;stroke:#0000ff;" x="248.551995" xlink:href="#m0c83800aa4" y="141.243974"/>
     <use style="fill:#0000ff;stroke:#0000ff;" x="359.791199" xlink:href="#m0c83800aa4" y="249.090939"/>
     <use style="fill:#0000ff;stroke:#0000ff;" x="393.657658" xlink:href="#m0c83800aa4" y="257.87908"/>
     <use style="fill:#0000ff;stroke:#0000ff;" x="287.439281" xlink:href="#m0c83800aa4" y="149.39917"/>
     <use style="fill:#0000ff;stroke:#0000ff;" x="368.439761" xlink:href="#m0c83800aa4" y="254.552661"/>
     <use style="fill:#0000ff;stroke:#0000ff;" x="315.917639" xlink:href="#m0c83800aa4" y="245.831406"/>
     <use style="fill:#0000ff;stroke:#0000ff;" x="347.159205" xlink:href="#m0c83800aa4" y="254.321374"/>
     <use style="fill:#0000ff;stroke:#0000ff;" x="314.731343" xlink:href="#m0c83800aa4" y="221.784811"/>
     <use style="fill:#0000ff;stroke:#0000ff;" x="359.759662" xlink:href="#m0c83800aa4" y="250.968526"/>
     <use style="fill:#0000ff;stroke:#0000ff;" x="364.165213" xlink:href="#m0c83800aa4" y="283.036829"/>
     <use style="fill:#0000ff;stroke:#0000ff;" x="274.593768" xlink:href="#m0c83800aa4" y="53.568"/>
     <use style="fill:#0000ff;stroke:#0000ff;" x="277.216235" xlink:href="#m0c83800aa4" y="248.724702"/>
     <use style="fill:#0000ff;stroke:#0000ff;" x="277.043991" xlink:href="#m0c83800aa4" y="265.087458"/>
     <use style="fill:#0000ff;stroke:#0000ff;" x="355.070048" xlink:href="#m0c83800aa4" y="264.655513"/>
     <use style="fill:#0000ff;stroke:#0000ff;" x="322.710339" xlink:href="#m0c83800aa4" y="262.91972"/>
     <use style="fill:#0000ff;stroke:#0000ff;" x="265.523883" xlink:href="#m0c83800aa4" y="238.852583"/>
     <use style="fill:#0000ff;stroke:#0000ff;" x="301.341543" xlink:href="#m0c83800aa4" y="237.11083"/>
     <use style="fill:#0000ff;stroke:#0000ff;" x="352.440528" xlink:href="#m0c83800aa4" y="261.909078"/>
     <use style="fill:#0000ff;stroke:#0000ff;" x="296.905359" xlink:href="#m0c83800aa4" y="206.368031"/>
     <use style="fill:#0000ff;stroke:#0000ff;" x="258.757074" xlink:href="#m0c83800aa4" y="198.473492"/>
     <use style="fill:#0000ff;stroke:#0000ff;" x="256.731394" xlink:href="#m0c83800aa4" y="232.361495"/>
     <use style="fill:#0000ff;stroke:#0000ff;" x="314.147535" xlink:href="#m0c83800aa4" y="278.70872"/>
     <use style="fill:#0000ff;stroke:#0000ff;" x="328.556912" xlink:href="#m0c83800aa4" y="269.024567"/>
     <use style="fill:#0000ff;stroke:#0000ff;" x="270.146171" xlink:href="#m0c83800aa4" y="242.179688"/>
     <use style="fill:#0000ff;stroke:#0000ff;" x="326.577325" xlink:href="#m0c83800aa4" y="283.098371"/>
     <use style="fill:#0000ff;stroke:#0000ff;" x="358.277398" xlink:href="#m0c83800aa4" y="238.501257"/>
     <use style="fill:#0000ff;stroke:#0000ff;" x="298.37399" xlink:href="#m0c83800aa4" y="270.239566"/>
     <use style="fill:#0000ff;stroke:#0000ff;" x="290.066566" xlink:href="#m0c83800aa4" y="205.975049"/>
     <use style="fill:#0000ff;stroke:#0000ff;" x="254.00679" xlink:href="#m0c83800aa4" y="212.607914"/>
     <use style="fill:#0000ff;stroke:#0000ff;" x="311.543626" xlink:href="#m0c83800aa4" y="257.311417"/>
     <use style="fill:#0000ff;stroke:#0000ff;" x="380.877679" xlink:href="#m0c83800aa4" y="266.301451"/>
     <use style="fill:#0000ff;stroke:#0000ff;" x="346.193671" xlink:href="#m0c83800aa4" y="237.097388"/>
     <use style="fill:#0000ff;stroke:#0000ff;" x="337.108435" xlink:href="#m0c83800aa4" y="231.232794"/>
     <use style="fill:#0000ff;stroke:#0000ff;" x="396.445388" xlink:href="#m0c83800aa4" y="251.770422"/>
     <use style="fill:#0000ff;stroke:#0000ff;" x="301.341004" xlink:href="#m0c83800aa4" y="276.386503"/>
     <use style="fill:#0000ff;stroke:#0000ff;" x="329.509422" xlink:href="#m0c83800aa4" y="251.188909"/>
     <use style="fill:#0000ff;stroke:#0000ff;" x="330.927079" xlink:href="#m0c83800aa4" y="176.344432"/>
     <use style="fill:#0000ff;stroke:#0000ff;" x="283.237478" xlink:href="#m0c83800aa4" y="267.167003"/>
     <use style="fill:#0000ff;stroke:#0000ff;" x="314.391708" xlink:href="#m0c83800aa4" y="255.216039"/>
     <use style="fill:#0000ff;stroke:#0000ff;" x="370.720866" xlink:href="#m0c83800aa4" y="195.306622"/>
     <use style="fill:#0000ff;stroke:#0000ff;" x="279.802312" xlink:href="#m0c83800aa4" y="253.971087"/>
     <use style="fill:#0000ff;stroke:#0000ff;" x="294.005177" xlink:href="#m0c83800aa4" y="223.619357"/>
     <use style="fill:#0000ff;stroke:#0000ff;" x="237.152769" xlink:href="#m0c83800aa4" y="204.694273"/>
     <use style="fill:#0000ff;stroke:#0000ff;" x="326.191597" xlink:href="#m0c83800aa4" y="267.689354"/>
     <use style="fill:#0000ff;stroke:#0000ff;" x="347.99137" xlink:href="#m0c83800aa4" y="246.89742"/>
     <use style="fill:#0000ff;stroke:#0000ff;" x="348.26787" xlink:href="#m0c83800aa4" y="280.936082"/>
     <use style="fill:#0000ff;stroke:#0000ff;" x="312.991927" xlink:href="#m0c83800aa4" y="264.505191"/>
     <use style="fill:#0000ff;stroke:#0000ff;" x="262.92488" xlink:href="#m0c83800aa4" y="231.700993"/>
     <use style="fill:#0000ff;stroke:#0000ff;" x="367.396597" xlink:href="#m0c83800aa4" y="268.479774"/>
     <use style="fill:#0000ff;stroke:#0000ff;" x="349.324062" xlink:href="#m0c83800aa4" y="263.413896"/>
     <use style="fill:#0000ff;stroke:#0000ff;" x="290.301885" xlink:href="#m0c83800aa4" y="267.767528"/>
     <use style="fill:#0000ff;stroke:#0000ff;" x="196.979899" xlink:href="#m0c83800aa4" y="219.774309"/>
     <use style="fill:#0000ff;stroke:#0000ff;" x="353.256972" xlink:href="#m0c83800aa4" y="207.750863"/>
     <use style="fill:#0000ff;stroke:#0000ff;" x="342.280371" xlink:href="#m0c83800aa4" y="139.133785"/>
     <use style="fill:#0000ff;stroke:#0000ff;" x="356.553841" xlink:href="#m0c83800aa4" y="286.380289"/>
     <use style="fill:#0000ff;stroke:#0000ff;" x="369.25103" xlink:href="#m0c83800aa4" y="254.644736"/>
     <use style="fill:#0000ff;stroke:#0000ff;" x="294.683176" xlink:href="#m0c83800aa4" y="281.757703"/>
     <use style="fill:#0000ff;stroke:#0000ff;" x="298.535426" xlink:href="#m0c83800aa4" y="232.078057"/>
     <use style="fill:#0000ff;stroke:#0000ff;" x="337.723551" xlink:href="#m0c83800aa4" y="236.03216"/>
     <use style="fill:#0000ff;stroke:#0000ff;" x="282.296038" xlink:href="#m0c83800aa4" y="225.940984"/>
     <use style="fill:#0000ff;stroke:#0000ff;" x="284.782817" xlink:href="#m0c83800aa4" y="245.998032"/>
     <use style="fill:#0000ff;stroke:#0000ff;" x="199.259493" xlink:href="#m0c83800aa4" y="293.482915"/>
     <use style="fill:#0000ff;stroke:#0000ff;" x="362.238997" xlink:href="#m0c83800aa4" y="263.773422"/>
     <use style="fill:#0000ff;stroke:#0000ff;" x="312.518331" xlink:href="#m0c83800aa4" y="267.23563"/>
     <use style="fill:#0000ff;stroke:#0000ff;" x="335.415113" xlink:href="#m0c83800aa4" y="245.419494"/>
     <use style="fill:#0000ff;stroke:#0000ff;" x="278.523829" xlink:href="#m0c83800aa4" y="152.309661"/>
     <use style="fill:#0000ff;stroke:#0000ff;" x="286.369397" xlink:href="#m0c83800aa4" y="255.81164"/>
     <use style="fill:#0000ff;stroke:#0000ff;" x="265.915392" xlink:href="#m0c83800aa4" y="250.226801"/>
     <use style="fill:#0000ff;stroke:#0000ff;" x="372.32373" xlink:href="#m0c83800aa4" y="266.953622"/>
     <use style="fill:#0000ff;stroke:#0000ff;" x="317.876423" xlink:href="#m0c83800aa4" y="233.416533"/>
     <use style="fill:#0000ff;stroke:#0000ff;" x="321.960716" xlink:href="#m0c83800aa4" y="245.539714"/>
     <use style="fill:#0000ff;stroke:#0000ff;" x="265.709887" xlink:href="#m0c83800aa4" y="265.146066"/>
     <use style="fill:#0000ff;stroke:#0000ff;" x="278.523829" xlink:href="#m0c83800aa4" y="139.766356"/>
     <use style="fill:#0000ff;stroke:#0000ff;" x="313.259876" xlink:href="#m0c83800aa4" y="267.532154"/>
     <use style="fill:#0000ff;stroke:#0000ff;" x="358.465922" xlink:href="#m0c83800aa4" y="271.051237"/>
     <use style="fill:#0000ff;stroke:#0000ff;" x="388.053681" xlink:href="#m0c83800aa4" y="259.426496"/>
     <use style="fill:#0000ff;stroke:#0000ff;" x="248.512751" xlink:href="#m0c83800aa4" y="230.108953"/>
     <use style="fill:#0000ff;stroke:#0000ff;" x="245.140274" xlink:href="#m0c83800aa4" y="262.091496"/>
     <use style="fill:#0000ff;stroke:#0000ff;" x="331.535996" xlink:href="#m0c83800aa4" y="269.328236"/>
     <use style="fill:#0000ff;stroke:#0000ff;" x="396.445388" xlink:href="#m0c83800aa4" y="241.518334"/>
     <use style="fill:#0000ff;stroke:#0000ff;" x="396.445388" xlink:href="#m0c83800aa4" y="279.868005"/>
     <use style="fill:#0000ff;stroke:#0000ff;" x="391.661593" xlink:href="#m0c83800aa4" y="241.624214"/>
     <use style="fill:#0000ff;stroke:#0000ff;" x="291.102453" xlink:href="#m0c83800aa4" y="267.289241"/>
     <use style="fill:#0000ff;stroke:#0000ff;" x="298.897195" xlink:href="#m0c83800aa4" y="261.465568"/>
     <use style="fill:#0000ff;stroke:#0000ff;" x="359.585018" xlink:href="#m0c83800aa4" y="267.123436"/>
     <use style="fill:#0000ff;stroke:#0000ff;" x="347.159205" xlink:href="#m0c83800aa4" y="253.136129"/>
     <use style="fill:#0000ff;stroke:#0000ff;" x="298.897195" xlink:href="#m0c83800aa4" y="286.601672"/>
     <use style="fill:#0000ff;stroke:#0000ff;" x="396.445388" xlink:href="#m0c83800aa4" y="259.129312"/>
     <use style="fill:#0000ff;stroke:#0000ff;" x="335.415113" xlink:href="#m0c83800aa4" y="242.818855"/>
     <use style="fill:#0000ff;stroke:#0000ff;" x="304.56591" xlink:href="#m0c83800aa4" y="262.199646"/>
     <use style="fill:#0000ff;stroke:#0000ff;" x="345.228137" xlink:href="#m0c83800aa4" y="257.032717"/>
     <use style="fill:#0000ff;stroke:#0000ff;" x="300.226504" xlink:href="#m0c83800aa4" y="248.763574"/>
     <use style="fill:#0000ff;stroke:#0000ff;" x="280.792106" xlink:href="#m0c83800aa4" y="261.42993"/>
     <use style="fill:#0000ff;stroke:#0000ff;" x="336.035559" xlink:href="#m0c83800aa4" y="248.830798"/>
     <use style="fill:#0000ff;stroke:#0000ff;" x="251.554387" xlink:href="#m0c83800aa4" y="249.34497"/>
     <use style="fill:#0000ff;stroke:#0000ff;" x="273.147893" xlink:href="#m0c83800aa4" y="262.840793"/>
     <use style="fill:#0000ff;stroke:#0000ff;" x="343.464461" xlink:href="#m0c83800aa4" y="223.589534"/>
     <use style="fill:#0000ff;stroke:#0000ff;" x="336.732411" xlink:href="#m0c83800aa4" y="276.559597"/>
     <use style="fill:#0000ff;stroke:#0000ff;" x="265.25138" xlink:href="#m0c83800aa4" y="253.299655"/>
     <use style="fill:#0000ff;stroke:#0000ff;" x="354.679693" xlink:href="#m0c83800aa4" y="232.063968"/>
     <use style="fill:#0000ff;stroke:#0000ff;" x="257.092863" xlink:href="#m0c83800aa4" y="220.253846"/>
     <use style="fill:#0000ff;stroke:#0000ff;" x="305.619081" xlink:href="#m0c83800aa4" y="226.024721"/>
     <use style="fill:#0000ff;stroke:#0000ff;" x="351.810471" xlink:href="#m0c83800aa4" y="245.689474"/>
     <use style="fill:#0000ff;stroke:#0000ff;" x="320.847559" xlink:href="#m0c83800aa4" y="277.148532"/>
     <use style="fill:#0000ff;stroke:#0000ff;" x="348.076219" xlink:href="#m0c83800aa4" y="212.382449"/>
     <use style="fill:#0000ff;stroke:#0000ff;" x="281.667879" xlink:href="#m0c83800aa4" y="167.554255"/>
     <use style="fill:#0000ff;stroke:#0000ff;" x="321.960716" xlink:href="#m0c83800aa4" y="216.486464"/>
     <use style="fill:#0000ff;stroke:#0000ff;" x="357.658777" xlink:href="#m0c83800aa4" y="278.027997"/>
     <use style="fill:#0000ff;stroke:#0000ff;" x="325.20423" xlink:href="#m0c83800aa4" y="267.498387"/>
     <use style="fill:#0000ff;stroke:#0000ff;" x="328.838324" xlink:href="#m0c83800aa4" y="273.526912"/>
     <use style="fill:#0000ff;stroke:#0000ff;" x="273.050115" xlink:href="#m0c83800aa4" y="253.168986"/>
     <use style="fill:#0000ff;stroke:#0000ff;" x="344.592535" xlink:href="#m0c83800aa4" y="283.434645"/>
     <use style="fill:#0000ff;stroke:#0000ff;" x="344.284437" xlink:href="#m0c83800aa4" y="286.984076"/>
     <use style="fill:#0000ff;stroke:#0000ff;" x="250.358387" xlink:href="#m0c83800aa4" y="262.525742"/>
     <use style="fill:#0000ff;stroke:#0000ff;" x="343.956932" xlink:href="#m0c83800aa4" y="273.621223"/>
     <use style="fill:#0000ff;stroke:#0000ff;" x="281.159153" xlink:href="#m0c83800aa4" y="273.104172"/>
     <use style="fill:#0000ff;stroke:#0000ff;" x="318.817769" xlink:href="#m0c83800aa4" y="284.388044"/>
     <use style="fill:#0000ff;stroke:#0000ff;" x="345.109265" xlink:href="#m0c83800aa4" y="279.265826"/>
     <use style="fill:#0000ff;stroke:#0000ff;" x="364.019655" xlink:href="#m0c83800aa4" y="272.260179"/>
     <use style="fill:#0000ff;stroke:#0000ff;" x="335.401343" xlink:href="#m0c83800aa4" y="266.817221"/>
     <use style="fill:#0000ff;stroke:#0000ff;" x="287.825362" xlink:href="#m0c83800aa4" y="265.089278"/>
     <use style="fill:#0000ff;stroke:#0000ff;" x="317.466853" xlink:href="#m0c83800aa4" y="272.728145"/>
     <use style="fill:#0000ff;stroke:#0000ff;" x="367.516273" xlink:href="#m0c83800aa4" y="276.841793"/>
     <use style="fill:#0000ff;stroke:#0000ff;" x="244.92" xlink:href="#m0c83800aa4" y="232.631715"/>
     <use style="fill:#0000ff;stroke:#0000ff;" x="392.905876" xlink:href="#m0c83800aa4" y="278.905391"/>
     <use style="fill:#0000ff;stroke:#0000ff;" x="396.445388" xlink:href="#m0c83800aa4" y="242.15773"/>
     <use style="fill:#0000ff;stroke:#0000ff;" x="313.757022" xlink:href="#m0c83800aa4" y="248.652581"/>
     <use style="fill:#0000ff;stroke:#0000ff;" x="302.156893" xlink:href="#m0c83800aa4" y="275.343433"/>
     <use style="fill:#0000ff;stroke:#0000ff;" x="376.411479" xlink:href="#m0c83800aa4" y="278.445909"/>
     <use style="fill:#0000ff;stroke:#0000ff;" x="268.218334" xlink:href="#m0c83800aa4" y="202.923617"/>
     <use style="fill:#0000ff;stroke:#0000ff;" x="373.031209" xlink:href="#m0c83800aa4" y="235.699627"/>
     <use style="fill:#0000ff;stroke:#0000ff;" x="329.039679" xlink:href="#m0c83800aa4" y="279.443191"/>
     <use style="fill:#0000ff;stroke:#0000ff;" x="354.679693" xlink:href="#m0c83800aa4" y="240.53712"/>
     <use style="fill:#0000ff;stroke:#0000ff;" x="317.255439" xlink:href="#m0c83800aa4" y="242.967375"/>
     <use style="fill:#0000ff;stroke:#0000ff;" x="303.434401" xlink:href="#m0c83800aa4" y="241.879677"/>
     <use style="fill:#0000ff;stroke:#0000ff;" x="342.280371" xlink:href="#m0c83800aa4" y="169.338191"/>
     <use style="fill:#0000ff;stroke:#0000ff;" x="273.754384" xlink:href="#m0c83800aa4" y="252.473268"/>
     <use style="fill:#0000ff;stroke:#0000ff;" x="250.884821" xlink:href="#m0c83800aa4" y="265.777628"/>
     <use style="fill:#0000ff;stroke:#0000ff;" x="354.679693" xlink:href="#m0c83800aa4" y="252.032295"/>
     <use style="fill:#0000ff;stroke:#0000ff;" x="335.034236" xlink:href="#m0c83800aa4" y="262.790776"/>
     <use style="fill:#0000ff;stroke:#0000ff;" x="328.724304" xlink:href="#m0c83800aa4" y="247.464565"/>
     <use style="fill:#0000ff;stroke:#0000ff;" x="343.884153" xlink:href="#m0c83800aa4" y="273.961057"/>
     <use style="fill:#0000ff;stroke:#0000ff;" x="280.930386" xlink:href="#m0c83800aa4" y="253.177866"/>
     <use style="fill:#0000ff;stroke:#0000ff;" x="298.867964" xlink:href="#m0c83800aa4" y="269.80277"/>
     <use style="fill:#0000ff;stroke:#0000ff;" x="366.629992" xlink:href="#m0c83800aa4" y="241.003593"/>
     <use style="fill:#0000ff;stroke:#0000ff;" x="281.04198" xlink:href="#m0c83800aa4" y="245.094016"/>
     <use style="fill:#0000ff;stroke:#0000ff;" x="284.207863" xlink:href="#m0c83800aa4" y="261.300978"/>
     <use style="fill:#0000ff;stroke:#0000ff;" x="391.661593" xlink:href="#m0c83800aa4" y="284.018982"/>
     <use style="fill:#0000ff;stroke:#0000ff;" x="335.415113" xlink:href="#m0c83800aa4" y="270.635017"/>
     <use style="fill:#0000ff;stroke:#0000ff;" x="310.71025" xlink:href="#m0c83800aa4" y="259.364781"/>
     <use style="fill:#0000ff;stroke:#0000ff;" x="348.515318" xlink:href="#m0c83800aa4" y="273.529804"/>
     <use style="fill:#0000ff;stroke:#0000ff;" x="299.535104" xlink:href="#m0c83800aa4" y="264.424014"/>
     <use style="fill:#0000ff;stroke:#0000ff;" x="348.510467" xlink:href="#m0c83800aa4" y="276.427603"/>
     <use style="fill:#0000ff;stroke:#0000ff;" x="300.782483" xlink:href="#m0c83800aa4" y="209.582891"/>
     <use style="fill:#0000ff;stroke:#0000ff;" x="296.905359" xlink:href="#m0c83800aa4" y="164.037059"/>
     <use style="fill:#0000ff;stroke:#0000ff;" x="276.372099" xlink:href="#m0c83800aa4" y="252.46936"/>
     <use style="fill:#0000ff;stroke:#0000ff;" x="251.715044" xlink:href="#m0c83800aa4" y="234.378789"/>
     <use style="fill:#0000ff;stroke:#0000ff;" x="359.791199" xlink:href="#m0c83800aa4" y="251.105887"/>
     <use style="fill:#0000ff;stroke:#0000ff;" x="304.842495" xlink:href="#m0c83800aa4" y="212.558886"/>
     <use style="fill:#0000ff;stroke:#0000ff;" x="347.992141" xlink:href="#m0c83800aa4" y="287.510304"/>
     <use style="fill:#0000ff;stroke:#0000ff;" x="339.138341" xlink:href="#m0c83800aa4" y="209.434799"/>
     <use style="fill:#0000ff;stroke:#0000ff;" x="369.009863" xlink:href="#m0c83800aa4" y="232.442127"/>
     <use style="fill:#0000ff;stroke:#0000ff;" x="301.341004" xlink:href="#m0c83800aa4" y="280.438563"/>
     <use style="fill:#0000ff;stroke:#0000ff;" x="346.382896" xlink:href="#m0c83800aa4" y="243.910729"/>
     <use style="fill:#0000ff;stroke:#0000ff;" x="307.292258" xlink:href="#m0c83800aa4" y="277.044016"/>
     <use style="fill:#0000ff;stroke:#0000ff;" x="258.985115" xlink:href="#m0c83800aa4" y="259.783928"/>
     <use style="fill:#0000ff;stroke:#0000ff;" x="311.172454" xlink:href="#m0c83800aa4" y="201.676354"/>
     <use style="fill:#0000ff;stroke:#0000ff;" x="343.758003" xlink:href="#m0c83800aa4" y="278.078348"/>
     <use style="fill:#0000ff;stroke:#0000ff;" x="268.985816" xlink:href="#m0c83800aa4" y="196.924896"/>
     <use style="fill:#0000ff;stroke:#0000ff;" x="347.159205" xlink:href="#m0c83800aa4" y="254.297887"/>
     <use style="fill:#0000ff;stroke:#0000ff;" x="348.36879" xlink:href="#m0c83800aa4" y="261.728774"/>
     <use style="fill:#0000ff;stroke:#0000ff;" x="156.010894" xlink:href="#m0c83800aa4" y="223.386126"/>
     <use style="fill:#0000ff;stroke:#0000ff;" x="398.487273" xlink:href="#m0c83800aa4" y="255.198958"/>
     <use style="fill:#0000ff;stroke:#0000ff;" x="351.67635" xlink:href="#m0c83800aa4" y="295.416009"/>
     <use style="fill:#0000ff;stroke:#0000ff;" x="266.607494" xlink:href="#m0c83800aa4" y="251.011765"/>
     <use style="fill:#0000ff;stroke:#0000ff;" x="346.591529" xlink:href="#m0c83800aa4" y="215.362654"/>
     <use style="fill:#0000ff;stroke:#0000ff;" x="353.256972" xlink:href="#m0c83800aa4" y="223.835965"/>
     <use style="fill:#0000ff;stroke:#0000ff;" x="280.351763" xlink:href="#m0c83800aa4" y="262.283496"/>
     <use style="fill:#0000ff;stroke:#0000ff;" x="297.796853" xlink:href="#m0c83800aa4" y="251.630206"/>
     <use style="fill:#0000ff;stroke:#0000ff;" x="286.726014" xlink:href="#m0c83800aa4" y="246.033511"/>
     <use style="fill:#0000ff;stroke:#0000ff;" x="287.825362" xlink:href="#m0c83800aa4" y="267.874024"/>
     <use style="fill:#0000ff;stroke:#0000ff;" x="305.745572" xlink:href="#m0c83800aa4" y="282.191908"/>
     <use style="fill:#0000ff;stroke:#0000ff;" x="256.731394" xlink:href="#m0c83800aa4" y="243.916717"/>
     <use style="fill:#0000ff;stroke:#0000ff;" x="341.821564" xlink:href="#m0c83800aa4" y="272.515335"/>
     <use style="fill:#0000ff;stroke:#0000ff;" x="329.812678" xlink:href="#m0c83800aa4" y="278.17163"/>
     <use style="fill:#0000ff;stroke:#0000ff;" x="330.812625" xlink:href="#m0c83800aa4" y="283.006557"/>
     <use style="fill:#0000ff;stroke:#0000ff;" x="352.456884" xlink:href="#m0c83800aa4" y="282.789307"/>
     <use style="fill:#0000ff;stroke:#0000ff;" x="334.2187" xlink:href="#m0c83800aa4" y="278.66356"/>
     <use style="fill:#0000ff;stroke:#0000ff;" x="335.415113" xlink:href="#m0c83800aa4" y="250.221158"/>
     <use style="fill:#0000ff;stroke:#0000ff;" x="391.661593" xlink:href="#m0c83800aa4" y="280.760876"/>
     <use style="fill:#0000ff;stroke:#0000ff;" x="253.339265" xlink:href="#m0c83800aa4" y="248.766155"/>
     <use style="fill:#0000ff;stroke:#0000ff;" x="314.993779" xlink:href="#m0c83800aa4" y="258.71088"/>
     <use style="fill:#0000ff;stroke:#0000ff;" x="363.648482" xlink:href="#m0c83800aa4" y="268.197485"/>
     <use style="fill:#0000ff;stroke:#0000ff;" x="267.985441" xlink:href="#m0c83800aa4" y="272.254895"/>
     <use style="fill:#0000ff;stroke:#0000ff;" x="337.133894" xlink:href="#m0c83800aa4" y="247.692769"/>
     <use style="fill:#0000ff;stroke:#0000ff;" x="262.107331" xlink:href="#m0c83800aa4" y="209.460341"/>
     <use style="fill:#0000ff;stroke:#0000ff;" x="275.587426" xlink:href="#m0c83800aa4" y="262.850333"/>
     <use style="fill:#0000ff;stroke:#0000ff;" x="337.554231" xlink:href="#m0c83800aa4" y="265.056242"/>
     <use style="fill:#0000ff;stroke:#0000ff;" x="325.63766" xlink:href="#m0c83800aa4" y="240.856738"/>
     <use style="fill:#0000ff;stroke:#0000ff;" x="282.774118" xlink:href="#m0c83800aa4" y="172.43844"/>
     <use style="fill:#0000ff;stroke:#0000ff;" x="354.119295" xlink:href="#m0c83800aa4" y="262.971806"/>
     <use style="fill:#0000ff;stroke:#0000ff;" x="268.749526" xlink:href="#m0c83800aa4" y="259.658805"/>
     <use style="fill:#0000ff;stroke:#0000ff;" x="296.748021" xlink:href="#m0c83800aa4" y="268.000592"/>
     <use style="fill:#0000ff;stroke:#0000ff;" x="337.554231" xlink:href="#m0c83800aa4" y="256.505108"/>
     <use style="fill:#0000ff;stroke:#0000ff;" x="314.731343" xlink:href="#m0c83800aa4" y="207.482492"/>
     <use style="fill:#0000ff;stroke:#0000ff;" x="336.494667" xlink:href="#m0c83800aa4" y="282.547091"/>
     <use style="fill:#0000ff;stroke:#0000ff;" x="275.421554" xlink:href="#m0c83800aa4" y="203.500879"/>
     <use style="fill:#0000ff;stroke:#0000ff;" x="341.249543" xlink:href="#m0c83800aa4" y="274.655546"/>
     <use style="fill:#0000ff;stroke:#0000ff;" x="340.271893" xlink:href="#m0c83800aa4" y="281.463717"/>
     <use style="fill:#0000ff;stroke:#0000ff;" x="322.996966" xlink:href="#m0c83800aa4" y="287.730493"/>
     <use style="fill:#0000ff;stroke:#0000ff;" x="326.945308" xlink:href="#m0c83800aa4" y="264.462987"/>
     <use style="fill:#0000ff;stroke:#0000ff;" x="293.004774" xlink:href="#m0c83800aa4" y="211.146888"/>
     <use style="fill:#0000ff;stroke:#0000ff;" x="346.402557" xlink:href="#m0c83800aa4" y="240.131272"/>
     <use style="fill:#0000ff;stroke:#0000ff;" x="262.983104" xlink:href="#m0c83800aa4" y="242.86089"/>
     <use style="fill:#0000ff;stroke:#0000ff;" x="175.995693" xlink:href="#m0c83800aa4" y="266.829809"/>
     <use style="fill:#0000ff;stroke:#0000ff;" x="292.458567" xlink:href="#m0c83800aa4" y="272.840418"/>
     <use style="fill:#0000ff;stroke:#0000ff;" x="279.702848" xlink:href="#m0c83800aa4" y="207.764943"/>
     <use style="fill:#0000ff;stroke:#0000ff;" x="302.293119" xlink:href="#m0c83800aa4" y="260.603032"/>
     <use style="fill:#0000ff;stroke:#0000ff;" x="351.90439" xlink:href="#m0c83800aa4" y="277.245772"/>
     <use style="fill:#0000ff;stroke:#0000ff;" x="338.480712" xlink:href="#m0c83800aa4" y="262.131541"/>
     <use style="fill:#0000ff;stroke:#0000ff;" x="327.499192" xlink:href="#m0c83800aa4" y="260.376663"/>
     <use style="fill:#0000ff;stroke:#0000ff;" x="287.524156" xlink:href="#m0c83800aa4" y="256.032468"/>
     <use style="fill:#0000ff;stroke:#0000ff;" x="288.521448" xlink:href="#m0c83800aa4" y="275.699623"/>
     <use style="fill:#0000ff;stroke:#0000ff;" x="296.885951" xlink:href="#m0c83800aa4" y="260.588678"/>
     <use style="fill:#0000ff;stroke:#0000ff;" x="253.284099" xlink:href="#m0c83800aa4" y="254.180527"/>
     <use style="fill:#0000ff;stroke:#0000ff;" x="367.395846" xlink:href="#m0c83800aa4" y="139.555324"/>
     <use style="fill:#0000ff;stroke:#0000ff;" x="322.846299" xlink:href="#m0c83800aa4" y="258.391347"/>
     <use style="fill:#0000ff;stroke:#0000ff;" x="366.666382" xlink:href="#m0c83800aa4" y="259.098759"/>
     <use style="fill:#0000ff;stroke:#0000ff;" x="234.834643" xlink:href="#m0c83800aa4" y="269.639069"/>
     <use style="fill:#0000ff;stroke:#0000ff;" x="306.005417" xlink:href="#m0c83800aa4" y="259.788199"/>
     <use style="fill:#0000ff;stroke:#0000ff;" x="297.796853" xlink:href="#m0c83800aa4" y="252.731489"/>
     <use style="fill:#0000ff;stroke:#0000ff;" x="276.465572" xlink:href="#m0c83800aa4" y="248.990075"/>
     <use style="fill:#0000ff;stroke:#0000ff;" x="363.889251" xlink:href="#m0c83800aa4" y="265.118795"/>
     <use style="fill:#0000ff;stroke:#0000ff;" x="335.415113" xlink:href="#m0c83800aa4" y="249.574933"/>
     <use style="fill:#0000ff;stroke:#0000ff;" x="311.68423" xlink:href="#m0c83800aa4" y="177.582315"/>
     <use style="fill:#0000ff;stroke:#0000ff;" x="344.895428" xlink:href="#m0c83800aa4" y="251.502282"/>
     <use style="fill:#0000ff;stroke:#0000ff;" x="321.960716" xlink:href="#m0c83800aa4" y="202.634816"/>
     <use style="fill:#0000ff;stroke:#0000ff;" x="355.026606" xlink:href="#m0c83800aa4" y="268.758125"/>
     <use style="fill:#0000ff;stroke:#0000ff;" x="256.702416" xlink:href="#m0c83800aa4" y="256.768769"/>
     <use style="fill:#0000ff;stroke:#0000ff;" x="336.65113" xlink:href="#m0c83800aa4" y="254.683412"/>
     <use style="fill:#0000ff;stroke:#0000ff;" x="271.362383" xlink:href="#m0c83800aa4" y="234.624508"/>
     <use style="fill:#0000ff;stroke:#0000ff;" x="314.16056" xlink:href="#m0c83800aa4" y="278.037144"/>
     <use style="fill:#0000ff;stroke:#0000ff;" x="329.124025" xlink:href="#m0c83800aa4" y="248.824954"/>
     <use style="fill:#0000ff;stroke:#0000ff;" x="320.666627" xlink:href="#m0c83800aa4" y="135.581088"/>
     <use style="fill:#0000ff;stroke:#0000ff;" x="258.757074" xlink:href="#m0c83800aa4" y="96.024092"/>
     <use style="fill:#0000ff;stroke:#0000ff;" x="258.376511" xlink:href="#m0c83800aa4" y="195.350702"/>
     <use style="fill:#0000ff;stroke:#0000ff;" x="248.892453" xlink:href="#m0c83800aa4" y="253.967279"/>
     <use style="fill:#0000ff;stroke:#0000ff;" x="262.694414" xlink:href="#m0c83800aa4" y="263.760082"/>
     <use style="fill:#0000ff;stroke:#0000ff;" x="305.796517" xlink:href="#m0c83800aa4" y="264.365008"/>
     <use style="fill:#0000ff;stroke:#0000ff;" x="373.708344" xlink:href="#m0c83800aa4" y="275.621008"/>
     <use style="fill:#0000ff;stroke:#0000ff;" x="290.872728" xlink:href="#m0c83800aa4" y="269.295874"/>
     <use style="fill:#0000ff;stroke:#0000ff;" x="305.619081" xlink:href="#m0c83800aa4" y="251.527134"/>
     <use style="fill:#0000ff;stroke:#0000ff;" x="369.52706" xlink:href="#m0c83800aa4" y="243.388241"/>
     <use style="fill:#0000ff;stroke:#0000ff;" x="344.90791" xlink:href="#m0c83800aa4" y="278.63276"/>
     <use style="fill:#0000ff;stroke:#0000ff;" x="265.428539" xlink:href="#m0c83800aa4" y="267.193878"/>
     <use style="fill:#0000ff;stroke:#0000ff;" x="272.029912" xlink:href="#m0c83800aa4" y="244.96285"/>
     <use style="fill:#0000ff;stroke:#0000ff;" x="371.489198" xlink:href="#m0c83800aa4" y="271.795483"/>
     <use style="fill:#0000ff;stroke:#0000ff;" x="290.910802" xlink:href="#m0c83800aa4" y="245.207022"/>
     <use style="fill:#0000ff;stroke:#0000ff;" x="367.395846" xlink:href="#m0c83800aa4" y="208.067969"/>
     <use style="fill:#0000ff;stroke:#0000ff;" x="327.87279" xlink:href="#m0c83800aa4" y="266.753442"/>
     <use style="fill:#0000ff;stroke:#0000ff;" x="346.193671" xlink:href="#m0c83800aa4" y="241.02608"/>
     <use style="fill:#0000ff;stroke:#0000ff;" x="265.191444" xlink:href="#m0c83800aa4" y="120.55542"/>
     <use style="fill:#0000ff;stroke:#0000ff;" x="376.100956" xlink:href="#m0c83800aa4" y="277.547596"/>
     <use style="fill:#0000ff;stroke:#0000ff;" x="346.591529" xlink:href="#m0c83800aa4" y="151.911431"/>
     <use style="fill:#0000ff;stroke:#0000ff;" x="329.258016" xlink:href="#m0c83800aa4" y="260.849953"/>
     <use style="fill:#0000ff;stroke:#0000ff;" x="274.206111" xlink:href="#m0c83800aa4" y="244.755094"/>
     <use style="fill:#0000ff;stroke:#0000ff;" x="236.079893" xlink:href="#m0c83800aa4" y="270.841405"/>
     <use style="fill:#0000ff;stroke:#0000ff;" x="346.438693" xlink:href="#m0c83800aa4" y="271.867582"/>
     <use style="fill:#0000ff;stroke:#0000ff;" x="338.714424" xlink:href="#m0c83800aa4" y="275.886376"/>
     <use style="fill:#0000ff;stroke:#0000ff;" x="339.347937" xlink:href="#m0c83800aa4" y="265.746618"/>
     <use style="fill:#0000ff;stroke:#0000ff;" x="348.076219" xlink:href="#m0c83800aa4" y="216.656482"/>
     <use style="fill:#0000ff;stroke:#0000ff;" x="294.590989" xlink:href="#m0c83800aa4" y="254.442674"/>
     <use style="fill:#0000ff;stroke:#0000ff;" x="286.638679" xlink:href="#m0c83800aa4" y="214.35549"/>
     <use style="fill:#0000ff;stroke:#0000ff;" x="346.533306" xlink:href="#m0c83800aa4" y="204.112103"/>
     <use style="fill:#0000ff;stroke:#0000ff;" x="336.035559" xlink:href="#m0c83800aa4" y="236.70487"/>
     <use style="fill:#0000ff;stroke:#0000ff;" x="266.765586" xlink:href="#m0c83800aa4" y="274.683084"/>
     <use style="fill:#0000ff;stroke:#0000ff;" x="347.971902" xlink:href="#m0c83800aa4" y="274.595961"/>
     <use style="fill:#0000ff;stroke:#0000ff;" x="348.444965" xlink:href="#m0c83800aa4" y="278.60733"/>
     <use style="fill:#0000ff;stroke:#0000ff;" x="256.100278" xlink:href="#m0c83800aa4" y="263.467048"/>
     <use style="fill:#0000ff;stroke:#0000ff;" x="322.361" xlink:href="#m0c83800aa4" y="228.888865"/>
     <use style="fill:#0000ff;stroke:#0000ff;" x="269.732136" xlink:href="#m0c83800aa4" y="244.283162"/>
     <use style="fill:#0000ff;stroke:#0000ff;" x="354.359466" xlink:href="#m0c83800aa4" y="274.285766"/>
     <use style="fill:#0000ff;stroke:#0000ff;" x="389.019172" xlink:href="#m0c83800aa4" y="234.355267"/>
     <use style="fill:#0000ff;stroke:#0000ff;" x="389.019172" xlink:href="#m0c83800aa4" y="285.288624"/>
    </g>
   </g>
   <g id="patch_3">
    <path d="M 57.6 307.584 
L 57.6 41.472 
" style="fill:none;stroke:#000000;stroke-linecap:square;stroke-linejoin:miter;stroke-width:0.8;"/>
   </g>
   <g id="patch_4">
    <path d="M 414.72 307.584 
L 414.72 41.472 
" style="fill:none;stroke:#000000;stroke-linecap:square;stroke-linejoin:miter;stroke-width:0.8;"/>
   </g>
   <g id="patch_5">
    <path d="M 57.6 307.584 
L 414.72 307.584 
" style="fill:none;stroke:#000000;stroke-linecap:square;stroke-linejoin:miter;stroke-width:0.8;"/>
   </g>
   <g id="patch_6">
    <path d="M 57.6 41.472 
L 414.72 41.472 
" style="fill:none;stroke:#000000;stroke-linecap:square;stroke-linejoin:miter;stroke-width:0.8;"/>
   </g>
   <g id="text_19">
    <!-- Relationship between Temperature and Population Density -->
    <defs>
     <path d="M 44.390625 34.1875 
Q 47.5625 33.109375 50.5625 29.59375 
Q 53.5625 26.078125 56.59375 19.921875 
L 66.609375 0 
L 56 0 
L 46.6875 18.703125 
Q 43.0625 26.03125 39.671875 28.421875 
Q 36.28125 30.8125 30.421875 30.8125 
L 19.671875 30.8125 
L 19.671875 0 
L 9.8125 0 
L 9.8125 72.90625 
L 32.078125 72.90625 
Q 44.578125 72.90625 50.734375 67.671875 
Q 56.890625 62.453125 56.890625 51.90625 
Q 56.890625 45.015625 53.6875 40.46875 
Q 50.484375 35.9375 44.390625 34.1875 
z
M 19.671875 64.796875 
L 19.671875 38.921875 
L 32.078125 38.921875 
Q 39.203125 38.921875 42.84375 42.21875 
Q 46.484375 45.515625 46.484375 51.90625 
Q 46.484375 58.296875 42.84375 61.546875 
Q 39.203125 64.796875 32.078125 64.796875 
z
" id="DejaVuSans-82"/>
     <path d="M 54.890625 33.015625 
L 54.890625 0 
L 45.90625 0 
L 45.90625 32.71875 
Q 45.90625 40.484375 42.875 44.328125 
Q 39.84375 48.1875 33.796875 48.1875 
Q 26.515625 48.1875 22.3125 43.546875 
Q 18.109375 38.921875 18.109375 30.90625 
L 18.109375 0 
L 9.078125 0 
L 9.078125 75.984375 
L 18.109375 75.984375 
L 18.109375 46.1875 
Q 21.34375 51.125 25.703125 53.5625 
Q 30.078125 56 35.796875 56 
Q 45.21875 56 50.046875 50.171875 
Q 54.890625 44.34375 54.890625 33.015625 
z
" id="DejaVuSans-104"/>
     <path d="M 48.6875 27.296875 
Q 48.6875 37.203125 44.609375 42.84375 
Q 40.53125 48.484375 33.40625 48.484375 
Q 26.265625 48.484375 22.1875 42.84375 
Q 18.109375 37.203125 18.109375 27.296875 
Q 18.109375 17.390625 22.1875 11.75 
Q 26.265625 6.109375 33.40625 6.109375 
Q 40.53125 6.109375 44.609375 11.75 
Q 48.6875 17.390625 48.6875 27.296875 
z
M 18.109375 46.390625 
Q 20.953125 51.265625 25.265625 53.625 
Q 29.59375 56 35.59375 56 
Q 45.5625 56 51.78125 48.09375 
Q 58.015625 40.1875 58.015625 27.296875 
Q 58.015625 14.40625 51.78125 6.484375 
Q 45.5625 -1.421875 35.59375 -1.421875 
Q 29.59375 -1.421875 25.265625 0.953125 
Q 20.953125 3.328125 18.109375 8.203125 
L 18.109375 0 
L 9.078125 0 
L 9.078125 75.984375 
L 18.109375 75.984375 
z
" id="DejaVuSans-98"/>
     <path d="M 4.203125 54.6875 
L 13.1875 54.6875 
L 24.421875 12.015625 
L 35.59375 54.6875 
L 46.1875 54.6875 
L 57.421875 12.015625 
L 68.609375 54.6875 
L 77.59375 54.6875 
L 63.28125 0 
L 52.6875 0 
L 40.921875 44.828125 
L 29.109375 0 
L 18.5 0 
z
" id="DejaVuSans-119"/>
     <path d="M 45.40625 46.390625 
L 45.40625 75.984375 
L 54.390625 75.984375 
L 54.390625 0 
L 45.40625 0 
L 45.40625 8.203125 
Q 42.578125 3.328125 38.25 0.953125 
Q 33.9375 -1.421875 27.875 -1.421875 
Q 17.96875 -1.421875 11.734375 6.484375 
Q 5.515625 14.40625 5.515625 27.296875 
Q 5.515625 40.1875 11.734375 48.09375 
Q 17.96875 56 27.875 56 
Q 33.9375 56 38.25 53.625 
Q 42.578125 51.265625 45.40625 46.390625 
z
M 14.796875 27.296875 
Q 14.796875 17.390625 18.875 11.75 
Q 22.953125 6.109375 30.078125 6.109375 
Q 37.203125 6.109375 41.296875 11.75 
Q 45.40625 17.390625 45.40625 27.296875 
Q 45.40625 37.203125 41.296875 42.84375 
Q 37.203125 48.484375 30.078125 48.484375 
Q 22.953125 48.484375 18.875 42.84375 
Q 14.796875 37.203125 14.796875 27.296875 
z
" id="DejaVuSans-100"/>
    </defs>
    <g transform="translate(60.225938 35.472)scale(0.12 -0.12)">
     <use xlink:href="#DejaVuSans-82"/>
     <use x="64.982422" xlink:href="#DejaVuSans-101"/>
     <use x="126.505859" xlink:href="#DejaVuSans-108"/>
     <use x="154.289062" xlink:href="#DejaVuSans-97"/>
     <use x="215.568359" xlink:href="#DejaVuSans-116"/>
     <use x="254.777344" xlink:href="#DejaVuSans-105"/>
     <use x="282.560547" xlink:href="#DejaVuSans-111"/>
     <use x="343.742188" xlink:href="#DejaVuSans-110"/>
     <use x="407.121094" xlink:href="#DejaVuSans-115"/>
     <use x="459.220703" xlink:href="#DejaVuSans-104"/>
     <use x="522.599609" xlink:href="#DejaVuSans-105"/>
     <use x="550.382812" xlink:href="#DejaVuSans-112"/>
     <use x="613.859375" xlink:href="#DejaVuSans-32"/>
     <use x="645.646484" xlink:href="#DejaVuSans-98"/>
     <use x="709.123047" xlink:href="#DejaVuSans-101"/>
     <use x="770.646484" xlink:href="#DejaVuSans-116"/>
     <use x="809.855469" xlink:href="#DejaVuSans-119"/>
     <use x="891.642578" xlink:href="#DejaVuSans-101"/>
     <use x="953.166016" xlink:href="#DejaVuSans-101"/>
     <use x="1014.689453" xlink:href="#DejaVuSans-110"/>
     <use x="1078.068359" xlink:href="#DejaVuSans-32"/>
     <use x="1109.855469" xlink:href="#DejaVuSans-84"/>
     <use x="1153.939453" xlink:href="#DejaVuSans-101"/>
     <use x="1215.462891" xlink:href="#DejaVuSans-109"/>
     <use x="1312.875" xlink:href="#DejaVuSans-112"/>
     <use x="1376.351562" xlink:href="#DejaVuSans-101"/>
     <use x="1437.875" xlink:href="#DejaVuSans-114"/>
     <use x="1478.988281" xlink:href="#DejaVuSans-97"/>
     <use x="1540.267578" xlink:href="#DejaVuSans-116"/>
     <use x="1579.476562" xlink:href="#DejaVuSans-117"/>
     <use x="1642.855469" xlink:href="#DejaVuSans-114"/>
     <use x="1681.71875" xlink:href="#DejaVuSans-101"/>
     <use x="1743.242188" xlink:href="#DejaVuSans-32"/>
     <use x="1775.029297" xlink:href="#DejaVuSans-97"/>
     <use x="1836.308594" xlink:href="#DejaVuSans-110"/>
     <use x="1899.6875" xlink:href="#DejaVuSans-100"/>
     <use x="1963.164062" xlink:href="#DejaVuSans-32"/>
     <use x="1994.951172" xlink:href="#DejaVuSans-80"/>
     <use x="2051.628906" xlink:href="#DejaVuSans-111"/>
     <use x="2112.810547" xlink:href="#DejaVuSans-112"/>
     <use x="2176.287109" xlink:href="#DejaVuSans-117"/>
     <use x="2239.666016" xlink:href="#DejaVuSans-108"/>
     <use x="2267.449219" xlink:href="#DejaVuSans-97"/>
     <use x="2328.728516" xlink:href="#DejaVuSans-116"/>
     <use x="2367.9375" xlink:href="#DejaVuSans-105"/>
     <use x="2395.720703" xlink:href="#DejaVuSans-111"/>
     <use x="2456.902344" xlink:href="#DejaVuSans-110"/>
     <use x="2520.28125" xlink:href="#DejaVuSans-32"/>
     <use x="2552.068359" xlink:href="#DejaVuSans-68"/>
     <use x="2629.070312" xlink:href="#DejaVuSans-101"/>
     <use x="2690.59375" xlink:href="#DejaVuSans-110"/>
     <use x="2753.972656" xlink:href="#DejaVuSans-115"/>
     <use x="2806.072266" xlink:href="#DejaVuSans-105"/>
     <use x="2833.855469" xlink:href="#DejaVuSans-116"/>
     <use x="2873.064453" xlink:href="#DejaVuSans-121"/>
    </g>
   </g>
  </g>
 </g>
 <defs>
  <clipPath id="p8fab8b9f86">
   <rect height="266.112" width="357.12" x="57.6" y="41.472"/>
  </clipPath>
 </defs>
</svg>
